<svg xmlns="http://www.w3.org/2000/svg" xmlns:xlink="http://www.w3.org/1999/xlink" width="1814.697" height="1682.846" viewBox="0 0 1814.697 1682.846">
  <defs>
    <clipPath id="clip-path">
      <rect id="Rectángulo_1053" data-name="Rectángulo 1053" width="1533.132" height="1352.111" fill="none"/>
    </clipPath>
    <clipPath id="clip-path-2">
      <rect id="Rectángulo_1052" data-name="Rectángulo 1052" width="1533.138" height="1352.1" fill="none"/>
    </clipPath>
    <clipPath id="clip-path-3">
      <rect id="Rectángulo_1041" data-name="Rectángulo 1041" width="1353.518" height="1029.199" fill="none"/>
    </clipPath>
    <clipPath id="clip-path-4">
      <rect id="Rectángulo_1042" data-name="Rectángulo 1042" width="1353.518" height="656.824" fill="none"/>
    </clipPath>
    <clipPath id="clip-path-5">
      <rect id="Rectángulo_1043" data-name="Rectángulo 1043" width="1371.164" height="1125.999" fill="none"/>
    </clipPath>
    <clipPath id="clip-path-6">
      <rect id="Rectángulo_1044" data-name="Rectángulo 1044" width="1372.299" height="833.542" fill="none"/>
    </clipPath>
    <clipPath id="clip-path-7">
      <rect id="Rectángulo_1045" data-name="Rectángulo 1045" width="1385.613" height="995.49" fill="none"/>
    </clipPath>
    <clipPath id="clip-path-8">
      <rect id="Rectángulo_1046" data-name="Rectángulo 1046" width="1385.613" height="623.115" fill="none"/>
    </clipPath>
    <clipPath id="clip-path-9">
      <rect id="Rectángulo_1047" data-name="Rectángulo 1047" width="1408.999" height="940.756" fill="none"/>
    </clipPath>
    <clipPath id="clip-path-10">
      <rect id="Rectángulo_1048" data-name="Rectángulo 1048" width="1408.999" height="568.381" fill="none"/>
    </clipPath>
    <clipPath id="clip-path-11">
      <rect id="Rectángulo_1049" data-name="Rectángulo 1049" width="1434.278" height="1081.877" fill="none"/>
    </clipPath>
    <clipPath id="clip-path-12">
      <rect id="Rectángulo_1050" data-name="Rectángulo 1050" width="1434.278" height="709.501" fill="none"/>
    </clipPath>
    <clipPath id="clip-path-13">
      <rect id="Rectángulo_1051" data-name="Rectángulo 1051" width="1462.035" height="1035.397" fill="none"/>
    </clipPath>
  </defs>
  <g id="about-bg" transform="translate(1814.697 1311.948) rotate(166)" opacity="0.18">
    <g id="Grupo_4903" data-name="Grupo 4903" clip-path="url(#clip-path)">
      <g id="Grupo_4902" data-name="Grupo 4902" transform="translate(0 0)">
        <g id="Grupo_4901" data-name="Grupo 4901" clip-path="url(#clip-path-2)">
          <g id="Grupo_4870" data-name="Grupo 4870" transform="translate(0 182.124)" opacity="0.05">
            <g id="Grupo_4869" data-name="Grupo 4869">
              <g id="Grupo_4868" data-name="Grupo 4868" clip-path="url(#clip-path-3)">
                <path id="Trazado_1518" data-name="Trazado 1518" d="M0,0,9.691,453.493l9.559,5.469,9.253,8.881L38,473.9l9.472,6.147,9.341,7.809,9.1,10.763,9.384,7.241,9.45,6.672,9.406,6.65,9.428,6.65,9.516,5.294,10.478-7.2,11.069-15.947,10.916-14.372,10.609-11.134,10.456-9.188,9.647,1.422,8.619,16.472,8.225,22.4,8.947,11.769,9.253,7.744,9.341,5.994,9.188,8.531,8.728,15.925L247.3,579.69l8.969,12.4,9.013,11.856,9.538,3.084,9.341,5.994,9.275,7.634,9.209,8.291,8.881,14.5,8.269,26.994,9.144,10.5,10.828-23.866,10.959-27.978,10.041-10.172,9.756-5.141,9.472,1.072,9.472.5,9.363,2.188,9.8-7.984,9.45-.394,9.341,1.816,9.275,3.238,9.144,6.628,9.319,1.422,10.238-25.353,10.3-29.138,9.844-18.266,9.494-8.422,8.75,14.787,8.991,7.219,9.3-4.2,9.122,2.078,8.466,26.1,8.6,22.794,8.75,18.353,8.816,16.166,9.034,6.322,9.144.328,9.122,1.553,9.1,2.013,9.122-.088,9.144-2.844,9.144-4.331,9.1-3.85,9.078-2.253,9.034-.875,8.991.459,8.969,1.816,8.947,2.931,8.925,4.156,8.9,5.053,8.9,6.672,8.881,7.525,8.9,7.941,8.881,8.969,8.881,10.063,8.9,11.922,8.881,14.984,8.925,14.656,8.947,20.256,8.969,21.263,9.013,20.081,9.034,22.925,9.034,20.059,9.1,22.247,9.1,21.284,9.012,5.884,8.794-10.7,8.6-24.238,8.531-25.266,8.575-17.325,8.575-12.556,8.6-9.122,8.641-4.156,8.728.612,8.619-2.712,8.641-1.9,8.619-1.509,8.509-5.578,8.006-26.25,8.072-20.8,8.619,3.194,8.619,3.587,8.816,10.784,9.319,28.875,9.756,43.094,8.859,10.391,8.619,2.122,8.619,3.456,8.706,5.162,8.531,1.247,8.138-10.434,7.766-20.191,7.853-15.269,8.159-6.716,8.334-1.181,8.9,13.738,9.012,15.9,9.144,18.616,9.144,18.113,9.144,17.478,9.078,16.122,9.012,13.5,8.859,10.544,8.859,10.3,8.925,12.009,9.056,13.891,9.144,15.663,9.166,15.575,8.9,10.084,8.313-.2,8.072-5.381,7.941-7,8.072-3.763,8.356,1.334,8.75,8.334,9.3,17.719,8.4,1.925,7.81-6.956,7.744-8.159,7.809-6.344,8.159-.459,8.641,7.022,9.231,16.253,9.822,25.2,7.591-8.75V269.808Z" transform="translate(0 0)" fill="#0af"/>
              </g>
            </g>
          </g>
          <g id="Grupo_4873" data-name="Grupo 4873" transform="translate(0 182.124)" opacity="0.7">
            <g id="Grupo_4872" data-name="Grupo 4872">
              <g id="Grupo_4871" data-name="Grupo 4871" clip-path="url(#clip-path-4)">
                <path id="Trazado_1519" data-name="Trazado 1519" d="M0,0,9.691,81.135l9.559,5.447L28.5,95.463,38,101.522l9.472,6.147,9.341,7.787,9.1,10.784,9.384,7.263,9.45,6.65,9.406,6.65,9.428,6.672,9.516,5.272,10.478-7.2L134.641,135.6l10.916-14.35L156.166,110.1l10.456-9.209,9.647,1.444,8.619,16.472,8.225,22.4,8.947,11.769,9.253,7.744,9.341,5.994,9.188,8.531,8.728,15.925,8.728,16.166,8.969,12.4,9.013,11.834,9.538,3.106,9.341,5.972,9.275,7.634,9.209,8.291,8.881,14.525,8.269,26.972,9.144,10.5,10.828-23.844,10.959-28,10.041-10.172,9.756-5.141,9.472,1.094,9.472.481,9.363,2.188,9.8-7.984,9.45-.394,9.341,1.816,9.275,3.259,9.144,6.606,9.319,1.422,10.238-25.353,10.3-29.138,9.844-18.266,9.494-8.4,8.75,14.788,8.991,7.2,9.3-4.2,9.122,2.078,8.466,26.1,8.6,22.794,8.75,18.353,8.816,16.187,9.034,6.3,9.144.328,9.122,1.553,9.1,2.013,9.122-.088,9.144-2.844,9.144-4.331,9.1-3.85,9.078-2.231,9.034-.9,8.991.459,8.969,1.816,8.947,2.931,8.925,4.156,8.9,5.053,8.9,6.672,8.881,7.525,8.9,7.941,8.881,8.969,8.881,10.084,8.9,11.922,8.881,14.963,8.925,14.656,8.947,20.234,8.969,21.306,9.013,20.059,9.034,22.925,9.034,20.059,9.1,22.269,9.1,21.263,9.012,5.884,8.794-10.7,8.6-24.238,8.531-25.266,8.575-17.325,8.575-12.556,8.6-9.122,8.641-4.156,8.728.613,8.619-2.713,8.641-1.925,8.619-1.488,8.509-5.578,8.006-26.228,8.072-20.825,8.619,3.194,8.619,3.587L990.5,375.2l9.319,28.9,9.756,43.072,8.859,10.391,8.619,2.122,8.619,3.456,8.706,5.163,8.531,1.247,8.138-10.434,7.766-20.213,7.853-15.247,8.159-6.716,8.334-1.159,8.9,13.716,9.012,15.925,9.144,18.616,9.144,18.091,9.144,17.478,9.078,16.122,9.012,13.5,8.859,10.544,8.859,10.3,8.925,12.009,9.056,13.891,9.144,15.663,9.166,15.575,8.9,10.084,8.313-.2,8.072-5.381,7.941-6.978,8.072-3.784,8.356,1.334,8.75,8.334,9.3,17.719,8.4,1.925,7.81-6.934,7.744-8.181,7.809-6.344,8.159-.437,8.641,7,9.231,16.275,9.822,25.178,7.591-8.728V269.808Z" transform="translate(0 0)" fill="#0af"/>
              </g>
            </g>
          </g>
          <g id="Grupo_4876" data-name="Grupo 4876" transform="translate(23.372 226.112)" opacity="0.05">
            <g id="Grupo_4875" data-name="Grupo 4875">
              <g id="Grupo_4874" data-name="Grupo 4874" clip-path="url(#clip-path-5)">
                <path id="Trazado_1520" data-name="Trazado 1520" d="M1371.153,292.448,0,0,9.975,374.939l9.975,2.428,9.975,2.384,9.931,2.713,9.822,3.5L59.391,391l9.713,4.922,9.516,7.241L87.7,415.977l9.056,13.366,9.669,5.425,9.363,9.1,9.538,7.044,9.494,7.656,9.494,7.591,9.822,2.713,10.456-6.759,10.653-10.194,10.588-9.909,10.522-9.669,10.719-13.256L217.7,406.374l9.931-1.816,8.816,16.056,8.619,19.753,8.4,24.369,8.619,20.716,9.822-.5,9.734.941,9.472,5.491,9.013,14.788,9.122,12.272,9.625,2.384,9.144,12.119,8.684,21.941,8.422,28.591,8.269,33.1,9.341,9.844,9.188,13.191,10-5.862,10.763-26.1,10.741-26.775L414.052,554.1l11.134-42.5,11.244-48.016,10.609-34.344,8.816,17.347,8.116,38.7,8.006,45.588,8.247,39.594,10.194-24.938,10.106-24.478,10.063-25.834,10-26.316,9.691-16.341,8.641,26.666,8.706,24.5,8.881,18.069,9.013,13.65,9.034,11.769,9.122,8.509,9.231.831,9.3-2.034,9.231-2.3,9.231-2.559,9.253-4.069,9.188-2.537,9.144-.831,9.144-2.122,9.078.525,9.056,3.7,9.078,2.231,9.013,5.622,9.013,11.178,9.034,6.541,9.013,7.263,9.012,11.922,9.013,18.244,9.056,22.422,9.1,23.735,9.1,20.738,9.144,17.26,9.122,13.934,9.166,19.119,9.275,30.406,9.516,52.128,9.866,76.935,9.734,50.16,9.231,3.719,9.231,3.7,9.209,3.719L866.8,827.36l6.913-131.076,7.394-85.86,7.831-49.744,8.509-10.391,9.3,30.713,9.231,26.819,9.1,18.484,9.1,17.435L943.3,660.65,952.7,688.5l9.888,45,9.144,14.241,9.078,11.791,9.275,18.178,8.881,5.556,8.422-10.084,8.225-14.963,8.378-8.6,9.144,14.591,9.931,35.941,8.2-12.534,8.247-10.391,7.809-20.781,5.928-67.266,6.5-49.306,7.788-15.16,8.488,1.553,9.253,20.1,10.281,42.919,10.019,35.328,10,33.6,10.5,43.05,11.572,64.356,11.047,51.057,7.547-20.606,7.678-16.231,8.422-1.488,9.625,21.153,9.581,20.541,8.225-4.834,9.625,20.366,11.178,47.71,8.575,1.006,7.875-10.3L1266,982.63l10.828,38.96,12.491,64.75,10.784,36.138,8.772,3.522,6.322-34.322,3.894-70.263,5.294-46.66,7.131-17.872,8.466,1.969,8.378,1.116,6.847-20.519,7.131-16.122V571.312Z" transform="translate(0.002 0)" fill="#0581dd"/>
              </g>
            </g>
          </g>
          <g id="Grupo_4879" data-name="Grupo 4879" transform="translate(13.403 146.194)" opacity="0.8">
            <g id="Grupo_4878" data-name="Grupo 4878">
              <g id="Grupo_4877" data-name="Grupo 4877" clip-path="url(#clip-path-6)">
                <path id="Trazado_1521" data-name="Trazado 1521" d="M0,0,9.975,79.91l9.975,2.581L29.925,84.9,39.878,87.3l9.931,2.691,9.844,3.5,9.713,5.053,9.713,4.9,9.516,7.262,9.078,12.819,9.034,13.366,9.669,5.425,9.384,9.1,9.538,7.022,9.494,7.656,9.494,7.612,9.822,2.691,10.456-6.738,10.653-10.216L195.8,149.56l10.522-9.669,10.719-13.278L227.676,113.9l9.909-1.794,8.838,16.035,8.619,19.775,8.378,24.369,8.641,20.694,9.822-.481,9.734.941,9.472,5.491,8.991,14.788,9.144,12.25,9.625,2.384,9.144,12.141,8.684,21.919,8.422,28.613,8.269,33.075,9.341,9.866,9.188,13.169,10-5.841,10.763-26.119,10.719-26.753,10.653-26.8,11.134-42.481,11.222-48.038,10.631-34.322,8.794,17.347,8.138,38.675,8.006,45.61,8.247,39.572,10.194-24.938L510.5,228.573l10.063-25.813,10-26.338,9.691-16.319,8.619,26.666,8.728,24.5,8.881,18.069,9.013,13.628,9.034,11.791,9.122,8.487,9.231.853,9.275-2.056,9.253-2.275,9.231-2.559,9.231-4.091,9.188-2.537,9.144-.809,9.144-2.144,9.1.525,9.056,3.719,9.056,2.209,9.034,5.622,9.013,11.2,9.013,6.519,9.013,7.284,9.034,11.922,9.013,18.244,9.056,22.422,9.1,23.735,9.1,20.716L785.075,399l9.122,13.956,9.166,19.119,9.253,30.406,9.538,52.128,9.866,76.935,9.734,50.138,9.209,3.719,9.231,3.719,9.231,3.719,7.35-117.951,6.891-131.076,7.394-85.86,7.853-49.722,8.488-10.391,9.3,30.691,9.253,26.819,9.1,18.506,9.1,17.434,9.122,16.91,9.406,27.825,9.888,45,9.144,14.241,9.078,11.813,9.275,18.178,8.881,5.534,8.422-10.085,8.225-14.962,8.378-8.6,9.144,14.591,9.931,35.963,8.2-12.556,8.247-10.369,7.809-20.781,5.928-67.266,6.475-49.328,7.809-15.138,8.488,1.553,9.231,20.1,10.3,42.919,10.019,35.328,10,33.578,10.5,43.072,11.572,64.357,11.047,51.056,7.547-20.628,7.678-16.231,8.422-1.466,9.6,21.153,9.6,20.519,8.225-4.813,9.6,20.366,11.2,47.688,8.575,1.006,7.875-10.281,8.969,8.619,10.828,38.981,12.49,64.75,10.784,36.116,8.772,3.522,6.322-34.322,3.894-70.263,5.294-46.638,7.131-17.894,8.466,1.991,8.378,1.094,6.847-20.519,7.109-16.1V278.864Z" transform="translate(0 -0.003)" fill="#0581dd"/>
              </g>
            </g>
          </g>
          <g id="Grupo_4882" data-name="Grupo 4882" transform="translate(27.055 111.587)" opacity="0.05">
            <g id="Grupo_4881" data-name="Grupo 4881">
              <g id="Grupo_4880" data-name="Grupo 4880" clip-path="url(#clip-path-7)">
                <path id="Trazado_1522" data-name="Trazado 1522" d="M0,0,10.128,452.443l10.128,2.887,10.106,2.953,10.106,2.734,10.106,2.712,10.041,2.975L70.635,470.1l10,3.653,9.909,4.441,9.713,6.781,9.581,8.575,9.209,13.672,9.384,11.463,10.019,2.581,9.713,6.869,9.188,14.2,8.969,17.981,9.516,9.8,10.041,2.1,9.8,5.316,10.763-10.172,11.681-25.769,11.441-23.122,11.069-18.309,10.784-13.891,9.253,11.878,8.684,22.05,8.444,27.038,8.356,29.816,8.6,26.184,8.859,21.306,9.253,14.591,9.406,11.441L332,655.684l9.953-.7,9.647,6.453,11.419-34.519,11.747-44.472,11.069-31.194,10.85-28.2L407.1,503.7l9.209,11.528,8.334,34.869,8.291,38.566,8.509,33.71,9.013,20.366,9.362,10.216,9.909-7.306,9.778-3.894,9.778-5.184,10-13.584,10.216-23.888,10.369-33.01,10.216-31.15,8.9,22.838,8.706,33.163,8.947,23.647,9.122,17.041,9.188,14.9,9.341,6.278,9.559-6.8,9.494-5.119,9.472-4.572,9.406-4.309,9.406-2.6,9.319-1.028,9.341-3.128,9.3-1.509,9.3-2.166,9.253-1.859,9.231-.984,9.209.569,9.188,1.575,9.166,3.719,9.166,5.972,9.166,8.553,9.144,12.163,9.166,14.306,9.188,15.094,9.188,10.478,9.209,12.841,9.231,16.888,9.3,20.147,9.341,22.225,9.3,17.347,9.275,12.4,9.45,26.447,9.406,18.922,9.428,19.775,9.538,25.091,9.669,31.019,9.691,30.778,8.75-25.638,7.853-65.757,7.7-66.7,7.656-59.85,7.744-51.231,8.356-20.65,8.685-3.391,8.684-3.653,8.706-.634,9.188,16.144,9.319,20.278,9.756,33.753,11.922,102.9,14.109,164,9.341,10.894,8.006-28.919,8.684-7.5,7.984-25.944,9.1,6.125,9.056,5.206L1071,912.8l7.328-36.466,8.116-15.728,8.488-5.709,8.619-1.553,8.794,2.45,8.816,3.063,8.181-9.844,8.444-4.244,8.313-6.234,8.291-5.578,8.466-2.231,8.531-.416,8.575,1.028,8.378-2.8,8.312-3.478,8.313-3.194,8.094-6.541,8.028-7.087,7.853-9.822,7.569-13.934,8.028-5.95,9.581,20.672,10.544,35.2,9.887,24.347,9.122,11.528,8.488,2.034,8.247-1.772,8.094-3.719,8.006-5.009,7.875-5.862,7.831-6.672,7.744-7.481,7.722-6.978,9.166,12.884,9.559,18.156,9.581,18.528,9.625,18.55V301.483Z" transform="translate(0 -0.002)" fill="#0467bf"/>
              </g>
            </g>
          </g>
          <g id="Grupo_4885" data-name="Grupo 4885" transform="translate(27.055 111.587)" opacity="0.85">
            <g id="Grupo_4884" data-name="Grupo 4884">
              <g id="Grupo_4883" data-name="Grupo 4883" clip-path="url(#clip-path-8)">
                <path id="Trazado_1523" data-name="Trazado 1523" d="M0,0,10.128,80.041l10.128,2.931L30.363,85.9,40.469,88.66l10.106,2.713,10.041,2.953,10.019,3.391,10,3.675,9.909,4.441,9.713,6.759,9.581,8.575,9.209,13.694,9.384,11.441,10.019,2.581,9.713,6.869,9.188,14.2,8.969,17.981,9.516,9.8,10.041,2.122,9.8,5.316,10.763-10.194L218.117,169.2l11.441-23.1,11.069-18.331,10.784-13.891,9.253,11.9,8.684,22.028,8.444,27.016,8.356,29.838,8.6,26.206,8.859,21.285,9.253,14.591,9.406,11.463L332,283.3l9.953-.7,9.647,6.453,11.419-34.5,11.747-44.472,11.069-31.216,10.85-28.2L407.1,131.316l9.209,11.506,8.334,34.891L432.93,216.3l8.509,33.688,9.013,20.344,9.362,10.238,9.909-7.306,9.778-3.894,9.778-5.184,10-13.585,10.216-23.909,10.369-33.01,10.216-31.128,8.9,22.838,8.706,33.163,8.947,23.647,9.122,17.041,9.188,14.9,9.341,6.278,9.559-6.8,9.494-5.119,9.472-4.594,9.406-4.288,9.406-2.6,9.319-1.028,9.341-3.106,9.3-1.531,9.3-2.166,9.253-1.837,9.231-1.006,9.209.569,9.188,1.553,9.166,3.741,9.166,5.994,9.166,8.531,9.144,12.163,9.166,14.306,9.188,15.094,9.188,10.456,9.209,12.863,9.231,16.888,9.3,20.147,9.341,22.225,9.3,17.347,9.275,12.425,9.45,26.425,9.406,18.944,9.428,19.753,9.538,25.113,9.669,31,9.691,30.778,8.75-25.638,7.853-65.757,7.7-66.7,7.656-59.828,7.744-51.253,8.356-20.65,8.685-3.412,8.684-3.653,8.706-.612,9.188,16.144,9.319,20.256,9.756,33.775L997.089,448.2,1011.2,612.219l9.341,10.894,8.006-28.919,8.684-7.5,7.984-25.944,9.1,6.125,9.056,5.206L1071,540.424l7.328-36.466,8.116-15.728,8.488-5.709,8.619-1.553,8.794,2.45,8.816,3.063,8.181-9.844,8.444-4.244,8.313-6.212,8.291-5.6,8.466-2.231,8.531-.416,8.575,1.028,8.378-2.778,8.312-3.5,8.313-3.172,8.094-6.541,8.028-7.087,7.853-9.844,7.569-13.934,8.028-5.95,9.581,20.694,10.544,35.175,9.887,24.347,9.122,11.528,8.488,2.034,8.247-1.772,8.094-3.7,8.006-5.009,7.875-5.884,7.831-6.672,7.744-7.459,7.722-7,9.166,12.885,9.559,18.178,9.581,18.528,9.625,18.528V301.483Z" transform="translate(0 -0.002)" fill="#0467bf"/>
              </g>
            </g>
          </g>
          <g id="Grupo_4888" data-name="Grupo 4888" transform="translate(41.418 73.253)" opacity="0.05">
            <g id="Grupo_4887" data-name="Grupo 4887">
              <g id="Grupo_4886" data-name="Grupo 4886" clip-path="url(#clip-path-9)">
                <path id="Trazado_1524" data-name="Trazado 1524" d="M0,0,10.3,452.552l10.281,3.106L30.822,459.2l10.106,4.812,9.975,6.541,10,6.1,9.756,8.991,9.122,17.369L89.01,519.1l9.931,7.066,9.953,7,10.041,5.053,9.844,8.444,9.909,7,10.675-4.134,10.981-9.1,10.478-2.319,10.172,1.969,10.741-6.869,11.091-13.628,11.047-13.431,10.916-12.338,10.5-6.059,9.1,17.938,8.9,21.831,8.488,30.035,7.809,43.4,8.05,40.841,9.3,17.631L297.5,652.25l11.288-22.663,11.353-25.944,11.069-21.306,10.653-14.394,10.828-18.616,10.763-19.534,10.653-17.719,9.538,8.138,8.881,24.566,8.75,29.619,8.881,26.644,9.3,17.413,9.625,7.744,9.8,1.9,10.391-16.516,10.063-7.612,9.844-2.188,9.844-1.969,10.084-12.228,10.063-13.563,10.238-21.984,9.888-11.309,8.969,28.066,9.144,22.6,9.231,19.185,9.341,14.591,9.559,4.594,9.559,2.45,9.647-4.091,9.647-4.353,9.559-1.816,9.516,1.444,9.472,3.719,9.472,1.247,9.516-2.691,9.45-1.837,9.45-2.538,9.428-1.925,9.406-2.209,9.384-1.4,9.341-.263,9.341.656,9.3,1.466,9.319,2.188,9.275,3.3,9.3,4.419,9.275,6.519,9.3,7.678,9.275,7.984,9.3,8.181,9.275,7.087,9.253,6.038,9.275,6.191,9.253,5.512,9.253,5.294,9.187,1.684,9.1-2.406,9.122.459,9.209,4.747,9.253,10.15,9.428,16.341,9.516,19.994,9.537,21.438,9.669,25.463,9.734,25.528,9.3,6.388,9.122.547,9.1.525,9.231,5.6L968.345,839l9.078.569,8.137-28.394,8.334-20.65,8.422-15.859,8.4-15.619,8.159-20.322L1026.8,713.7l8.072-19.841,9.844,28.175,9.932,28.5,9.909,27.081,9.953,27.06,10.106,29.816,10.281,33.425,9.756,19.688,9.516,14.9,8.378-10.194,8.553-6.081,8.291-10.106,8.269-10.019,8.706-.9,9.078,6.606,9.45,13.628,9.822,20.344,9.778,19.119,8.466-4.834,9.034,5.906,8.816,2.078,8.509-3.172,8.991,5.556,9.3,10.3,8.2-6.978,8.509-1.75,8.575-.591,8.553-.591,8.663,1.509,8.772,3.216,8.619.853,8.553.175,8.6,1.313,8.4-1.334,7.984-6.847,8.269-2.669,8.4-.744,8.488.634,8.619,2.822,8.794,4.944,8.794,5.4,8.4.087,8.2-1.947V326.027Z" transform="translate(0.002 0.007)" fill="#044faa"/>
              </g>
            </g>
          </g>
          <g id="Grupo_4891" data-name="Grupo 4891" transform="translate(41.418 73.253)" opacity="0.9">
            <g id="Grupo_4890" data-name="Grupo 4890">
              <g id="Grupo_4889" data-name="Grupo 4889" clip-path="url(#clip-path-10)">
                <path id="Trazado_1525" data-name="Trazado 1525" d="M0,0,10.3,80.194,20.584,83.3l10.238,3.522,10.106,4.791L50.9,98.175l10,6.125,9.756,8.969,9.122,17.369,9.231,16.1,9.931,7.022,9.953,7.022,10.041,5.075,9.844,8.422,9.909,7,10.675-4.113,10.981-9.1,10.478-2.362,10.172,1.991,10.741-6.847,11.091-13.65,11.047-13.431,10.916-12.338,10.5-6.081,9.1,17.981,8.9,21.831,8.488,30.034,7.809,43.378,8.05,40.841,9.3,17.609L297.5,279.87l11.288-22.641,11.353-25.966,11.069-21.306,10.653-14.394,10.828-18.616,10.763-19.534,10.653-17.7,9.538,8.116,8.881,24.588,8.75,29.6,8.881,26.644,9.3,17.413,9.625,7.766,9.8,1.881,10.391-16.494,10.063-7.613,9.844-2.209,9.844-1.969,10.084-12.228,10.063-13.541,10.238-22.006,9.888-11.309,8.969,28.066,9.144,22.619,9.231,19.163,9.341,14.591,9.559,4.616,9.559,2.45,9.647-4.113,9.647-4.375,9.559-1.794,9.516,1.466,9.472,3.719,9.472,1.225,9.516-2.691,9.45-1.859,9.45-2.494,9.428-1.925,9.406-2.231,9.384-1.378,9.341-.284,9.341.678,9.3,1.444,9.319,2.209,9.275,3.281,9.3,4.441,9.275,6.519,9.3,7.656,9.275,7.984,9.3,8.181,9.275,7.088,9.253,6.038,9.275,6.212,9.253,5.512,9.253,5.272,9.187,1.706,9.1-2.428,9.122.459,9.209,4.747,9.253,10.15,9.428,16.363,9.516,19.972,9.537,21.438,9.669,25.441,9.734,25.55,9.3,6.388,9.122.569,9.1.5,9.231,5.6,9.472,14.525,9.078.569,8.137-28.394,8.334-20.65,8.422-15.838,8.4-15.641,8.159-20.344,7.919-25,8.072-19.841,9.844,28.175,9.932,28.5,9.909,27.081L1074.5,432.3l10.106,29.816,10.281,33.425,9.756,19.71,9.516,14.875,8.378-10.194,8.553-6.081,8.291-10.106,8.269-10.019,8.706-.9,9.078,6.606,9.45,13.628,9.822,20.344,9.778,19.119,8.466-4.834,9.034,5.906,8.816,2.078,8.509-3.172,8.991,5.556,9.3,10.3,8.2-6.978,8.509-1.75,8.575-.591,8.553-.569,8.663,1.487,8.772,3.216,8.619.853,8.553.175,8.6,1.334,8.4-1.334,7.984-6.869,8.269-2.669,8.4-.744,8.488.634,8.619,2.822,8.794,4.966,8.794,5.381,8.4.088,8.2-1.947V326.027Z" transform="translate(0.002 0.007)" fill="#044faa"/>
              </g>
            </g>
          </g>
          <g id="Grupo_4894" data-name="Grupo 4894" transform="translate(55.981 37.268)" opacity="0.05">
            <g id="Grupo_4893" data-name="Grupo 4893">
              <g id="Grupo_4892" data-name="Grupo 4892" clip-path="url(#clip-path-11)">
                <path id="Trazado_1526" data-name="Trazado 1526" d="M1434.263,978.255V351.423L0,0,10.325,454.455l10.369,4.353L31.041,463.4l10.238,5.666L51.45,475.74l10.084,7.525,10.15,6.387L81.9,495.405l10.609.416,10.5,1.553,10.391,2.647,10.3,3.675,10.281,4,10.434,1.356,10.566-.809L165.354,510l10.391,1.159,10.566-1.706,10.522-1.816,10.588-3.194,10.828-7.591,11-11.441,8.9,24.894,8.2,38.107,8.553,33.316,9.231,21.5,9.472,17.434,9.494,17.194,10.281,1.816,11.528-24.588,10.916-13.409L326.4,594.3l10.434-4.572L347.2,585.99l10.566-9.363,11.331-29.6,11.134-27.322,10.128-2.559,8.947,28.963,9.122,25.156,9.231,23.3,9.713,10.216,10.106-2.231,10.106-4,10.128-5.119,10.238-9.822,10.172-9.516L488.3,563.743l10.216-14.656,10.041-9.384,9.188,26.731,9.275,25.047,9.406,19.95,9.6,11.638,9.756,3,9.778.678,9.778-1.247,9.778-2.3,9.756-2.494,9.756-3.478,9.691-.919,9.647.394,9.647.525,9.6,1.991,9.581,2.341,9.581,1.6,9.581,1.006,9.538.788,9.537,1.094,9.516,1.859,9.516.634,9.472,1.313,9.472.678,9.428.984,9.45,1.728,9.45,3.063,9.406,5.469,9.45,6.541,9.45,7,9.428,7.066,9.406,4.091,9.406,4.572,9.341,2.034,9.319.066,9.3.109,9.275.853,9.3,1.466,9.253,1.838,9.275,2.363,9.253,2.669,9.275,3.3,9.319,5.687,9.385,9.581,9.559,14.284,9.691,19.731,9.822,22.881,9.647,16.209,9.45,9.472,9.319,5.688,9.319,4.856,9.166,1.334,9.034-2.406,8.9-5.1,8.9-5.338,8.794-6.081,8.641-9.319,8.291-17.588,7.919-25.7,8.4-12.009,10.5,37.166,10.784,42.066,10.7,38.325,10.3,28.853,10.938,41.082,12.556,72.932,14.547,109.529,6.366-54.425L1154.9,990.5l8.531-9.034,10,18.594,12.25,58.516,8.509-9.1,6.8-38.61,7.2-30.341,7.81-18.266,7.962-15.728,7.788-16.866,7.809-16.363,8.028-11.4,8.487-4.331,8.75.591,9.034,4.856,9.275,8.619,9.428,11.047,9.734,14.853,9.8,15.794,8.772,1.509,8.881,2.691L1339,965.72l9.691,14.131,9.013,4.834,8.356-3.5,8.75,1.816,8.794,2.3,8.356-2.538,8.247-4.156,8.159-4.681,8.335-2.406,8.816,3.456Z" transform="translate(0.009 -0.011)" fill="#053e99"/>
              </g>
            </g>
          </g>
          <g id="Grupo_4897" data-name="Grupo 4897" transform="translate(55.981 37.269)" opacity="0.95">
            <g id="Grupo_4896" data-name="Grupo 4896">
              <g id="Grupo_4895" data-name="Grupo 4895" clip-path="url(#clip-path-12)">
                <path id="Trazado_1527" data-name="Trazado 1527" d="M1434.263,605.875V351.423L0,0,10.325,82.075l10.369,4.331L31.041,91l10.238,5.688L51.45,103.36l10.084,7.525,10.15,6.409L81.9,123.026l10.609.437,10.5,1.509,10.391,2.647,10.3,3.7,10.281,4.025,10.434,1.313,10.566-.788,10.369,1.75,10.391,1.181,10.566-1.728,10.522-1.794,10.588-3.237,10.828-7.569,11-11.463,8.9,24.916,8.2,38.106,8.553,33.338,9.231,21.481,9.472,17.434,9.494,17.194,10.281,1.816,11.528-24.566,10.916-13.431,10.566-7.372,10.434-4.55L347.2,213.61l10.566-9.362,11.331-29.6,11.134-27.3,10.128-2.581,8.947,28.963,9.122,25.156,9.231,23.3,9.713,10.216,10.106-2.231,10.106-4,10.128-5.1,10.238-9.844,10.172-9.494L488.3,191.363l10.216-14.678,10.041-9.362,9.188,26.71,9.275,25.069,9.406,19.95,9.6,11.637,9.756,3,9.778.656,9.778-1.225,9.778-2.3,9.756-2.494,9.756-3.478,9.691-.9,9.647.372,9.647.547,9.6,1.969,9.581,2.341,9.581,1.6,9.581,1.028,9.538.766,9.537,1.094,9.516,1.859,9.516.634,9.472,1.334,9.472.678,9.428.963,9.45,1.728,9.45,3.084,9.406,5.447,9.45,6.541,9.45,7L795.072,290l9.406,4.091,9.406,4.594,9.341,2.013,9.319.066,9.3.087,9.275.875,9.3,1.466,9.253,1.859,9.275,2.362,9.253,2.647,9.275,3.3,9.319,5.688,9.385,9.581,9.559,14.284,9.691,19.731,9.822,22.882,9.647,16.209,9.45,9.472,9.319,5.688,9.319,4.856,9.166,1.334,9.034-2.406,8.9-5.1,8.9-5.338,8.794-6.081,8.641-9.319,8.291-17.588,7.919-25.7,8.4-11.987,10.5,37.144,10.784,42.088,10.7,38.3,10.3,28.853,10.938,41.082,12.556,72.932,14.547,109.551,6.366-54.447,7.175-36.947,8.531-9.034,10,18.594,12.25,58.516,8.509-9.078,6.8-38.631,7.2-30.341,7.81-18.266,7.962-15.728,7.788-16.866,7.809-16.341,8.028-11.419,8.487-4.331,8.75.591,9.034,4.856,9.275,8.641,9.428,11.025,9.734,14.853,9.8,15.794,8.772,1.488,8.881,2.734L1339,593.34l9.691,14.131,9.013,4.834,8.356-3.5,8.75,1.816,8.794,2.3,8.356-2.537,8.247-4.156,8.159-4.681,8.335-2.406,8.816,3.456Z" transform="translate(0.009 -0.009)" fill="#053e99"/>
              </g>
            </g>
          </g>
          <g id="Grupo_4900" data-name="Grupo 4900" transform="translate(71.096 0)" opacity="0.05">
            <g id="Grupo_4899" data-name="Grupo 4899">
              <g id="Grupo_4898" data-name="Grupo 4898" clip-path="url(#clip-path-13)">
                <path id="Trazado_1528" data-name="Trazado 1528" d="M1462.022,1035.064l-8.619.328-8.881-2.275-9.319-7.547-9.253-6.694-9.166-5.578-9.209-5.775-9.232-6.409L1389.266,997l-8.794-.459-9.187-5.622-9.45-8.444-9.712-12.228-9.734-12.338-9.6-10.959-9.516-9.6-9.385-8.05-9.3-6.825-9.231-5.644-9.166-4.659-9.122-4.025-9.1-3.675-9.056-2.931-9.013-1.859-9.013-1.531-9.012-1.706-8.991-.613-8.881,1.05-8.728,3.916-8.51,8.291-8.247,13.147-7.984,18.441-7.109,35.131-6.76,43.138-8.422,14.416L1146.5,986.042l-10-15.378-9.319-1.816-11.834-52.3-11.2-41.628L1093.711,848.1l-10.391-26.447L1072.93,793.87l-9.122.109-8.312,19.185-8.4,18.659-8.837,8.947-9.078,4.681-9.166,2.822L1010.5,842.3l-9.6-8.334-9.669-9.909-9.778-12.513-9.866-16.581-9.866-16.078-9.778-15.006-9.756-13.606-9.712-12.731-9.647-11.2-9.581-8.859-9.538-7.35-9.537-6.3-9.494-4.506-9.472-3.872-9.45-2.625-9.45-1.947-9.472-1.181-9.472-.525-9.472-.088-9.494.109-9.494.5-9.538-.044L789.8,689l-9.6-1.225-9.581-1.575-9.647-2.384-9.625-2.6-9.691-3.413-9.669-4.725-9.691-5.775-9.713-6.65-9.713-5.928-9.691-5.753-9.734-5.884-9.734-6.059L664,631.1l-9.756-5.031-9.756-3.478-9.778-1.356-9.822,1.291-9.866,2.953-9.888,3.938-9.931,4.309-9.953,3.872-9.888-3.522-9.844-7.306-9.822-9.013-9.756-11.791-9.669-16.669-9.625-18.331-9.669-15.335L506.8,563.875l-10.15,7.131-10.216,6.912-10.15,3.172-9.953-5.644-9.8-10.588-9.647-16.209-9.581-18.135-9.559-17.347-10.675,16.713L406.133,553l-11.222,28.416-11.025,21-11.025,18.506-10.784,11.419-10.522,2.822-10.7,6.65-9.931-12.053-10.106-7.853-10.478.219-10.719,4.288-10.894,7.9-9.734-16.625-9.362-23.625-9.384-22.6-9.056-28.109-8.816-31.61-9.144-24.5-11.025,9.166-11,8.028-10.763,3.3-10.653.766-10.588-.525-10.566-1.291-10.566-1.444-10.631-.984-10.7-.2-10.566-2.384-10.653-1.356-10.828.656L93.647,504.44l-11.156,4.484-10.369-6.672L62.016,492.19l-10.15-9.231-10.259-8.006-10.369-6.694L20.825,462.09l-10.434-6.037L0,0,1461.169,375.093Z" transform="translate(0.006 0.006)" fill="#062f89"/>
              </g>
            </g>
          </g>
        </g>
      </g>
      <path id="Trazado_1529" data-name="Trazado 1529" d="M1444.544,660.737l-9.319-7.525-9.275-6.716-9.144-5.556-9.209-5.775-9.231-6.409-9.078-4.134-8.794-.438-9.209-5.622-9.428-8.466-9.734-12.228-9.712-12.316-9.6-10.959-9.516-9.625-9.384-8.072-9.3-6.8-9.231-5.6-9.187-4.681-9.1-4.025-9.1-3.7-9.056-2.909-9.013-1.859-9.034-1.531-9.013-1.728-8.969-.613-8.881,1.05-8.75,3.938-8.488,8.291-8.247,13.147-7.984,18.419-7.131,35.131-6.738,43.138L1158.265,661l-11.747-47.316-10-15.378-9.319-1.837-11.834-52.3-11.2-41.607-10.434-26.819-10.369-26.447-10.434-27.8-9.1.131-8.312,19.184-8.4,18.638-8.838,8.969-9.078,4.659-9.166,2.866-9.494-5.994-9.647-8.356-9.669-9.888-9.756-12.556L971.6,422.605l-9.888-16.1L951.939,391.5,942.2,377.914l-9.713-12.731-9.669-11.222-9.559-8.838-9.56-7.35-9.537-6.3-9.45-4.528-9.494-3.85-9.45-2.647-9.45-1.947-9.472-1.159-9.472-.525-9.494-.109-9.472.131-9.494.5-9.537-.044-9.56-.678-9.6-1.225-9.6-1.575-9.625-2.363-9.625-2.625-9.691-3.391-9.669-4.725-9.691-5.8-9.713-6.65-9.712-5.906-9.713-5.775-9.713-5.884-9.734-6.038-9.713-5.928-9.756-5.031-9.756-3.5-9.8-1.356-9.8,1.291-9.866,2.975-9.888,3.938-9.931,4.309-9.953,3.872-9.888-3.522-9.844-7.328-9.8-8.969-9.778-11.791-9.691-16.734-9.625-18.31-9.669-15.335-10.15,8.247-10.15,7.109-10.216,6.934-10.15,3.194-9.931-5.644-9.844-10.609-9.647-16.209-9.559-18.113-9.559-17.347-10.653,16.713-10.981,23.122-11.2,28.416-11.047,21.022-11,18.484-10.806,11.441-10.5,2.778-10.7,6.672L330.927,257.4l-10.084-7.853-10.5.219-10.7,4.287-10.894,7.875-9.734-16.6L269.654,221.7l-9.406-22.6-9.056-28.131-8.794-31.61-9.144-24.5-11.025,9.188-11,7.984-10.784,3.325-10.653.809-10.566-.569-10.566-1.269-10.588-1.488-10.631-.962-10.675-.175L126.2,129.3l-10.675-1.356-10.806.7L93.669,132.06l-11.156,4.506-10.369-6.672L62.038,119.832,51.888,110.6l-10.259-8.006L31.281,95.878,20.847,89.732,10.391,83.672,0,0,1461.169,375.092l.875,287.592-8.619.328Z" transform="translate(71.085 -0.002)" fill="#062f89"/>
    </g>
  </g>
</svg>
