<svg xmlns="http://www.w3.org/2000/svg" xmlns:xlink="http://www.w3.org/1999/xlink" viewBox="0 0 427.84 298.57"><defs><style>.cls-1{isolation:isolate;}.cls-2{fill:url(#linear-gradient);}.cls-3{fill:url(#linear-gradient-2);}.cls-4{fill:url(#linear-gradient-3);}.cls-5{fill:url(#linear-gradient-4);}.cls-6{fill:#45108a;}.cls-7{fill:url(#linear-gradient-5);}.cls-8{fill:url(#linear-gradient-6);}.cls-9{fill:url(#linear-gradient-7);}.cls-10{fill:url(#linear-gradient-8);}.cls-11{fill:url(#linear-gradient-9);}.cls-12{fill:url(#linear-gradient-10);}.cls-13{fill:url(#linear-gradient-11);}.cls-14{fill:url(#linear-gradient-12);}.cls-15{fill:url(#linear-gradient-13);}.cls-16{fill:url(#linear-gradient-14);}.cls-17{fill:url(#linear-gradient-15);}.cls-18{fill:url(#linear-gradient-16);}.cls-19{fill:url(#linear-gradient-17);}.cls-20{fill:url(#linear-gradient-18);}.cls-21{fill:url(#linear-gradient-19);}.cls-22{fill:url(#linear-gradient-20);}.cls-23{fill:url(#linear-gradient-21);}.cls-24{fill:url(#linear-gradient-22);}.cls-25{fill:url(#linear-gradient-23);}.cls-26{fill:url(#linear-gradient-24);}.cls-27,.cls-48,.cls-54{opacity:0.2;}.cls-28,.cls-29,.cls-30,.cls-31,.cls-32,.cls-33,.cls-34,.cls-35,.cls-36,.cls-37,.cls-38,.cls-39{fill:#43e8e1;}.cls-28,.cls-53{opacity:0;}.cls-29{opacity:0.09;}.cls-30{opacity:0.18;}.cls-31{opacity:0.27;}.cls-32{opacity:0.36;}.cls-33{opacity:0.45;}.cls-34{opacity:0.55;}.cls-35{opacity:0.64;}.cls-36{opacity:0.73;}.cls-37{opacity:0.82;}.cls-38{opacity:0.91;}.cls-40{fill:url(#linear-gradient-25);}.cls-41{fill:url(#New_Gradient_Swatch_copy_25);}.cls-42{fill:url(#linear-gradient-26);}.cls-43{fill:url(#linear-gradient-27);}.cls-44{fill:url(#New_Gradient_Swatch_copy_25-2);}.cls-45{fill:url(#New_Gradient_Swatch_copy_25-3);}.cls-46,.cls-56,.cls-58,.cls-60,.cls-62,.cls-64,.cls-66,.cls-68,.cls-70,.cls-72,.cls-74,.cls-76,.cls-78,.cls-80,.cls-82,.cls-84,.cls-86{mix-blend-mode:color-dodge;}.cls-46{fill:url(#Radial_Gradient_1);}.cls-47{mix-blend-mode:screen;}.cls-48,.cls-49,.cls-50,.cls-53{fill:#2af6ff;}.cls-49,.cls-51{opacity:0.5;}.cls-51,.cls-52,.cls-54{fill:#ff63ce;}.cls-55{fill:url(#linear-gradient-28);}.cls-56{fill:url(#Radial_Gradient_1-2);}.cls-57{fill:url(#linear-gradient-29);}.cls-58{fill:url(#Radial_Gradient_1-3);}.cls-59{fill:url(#linear-gradient-30);}.cls-60{fill:url(#Radial_Gradient_1-4);}.cls-61{fill:url(#linear-gradient-31);}.cls-62{fill:url(#Radial_Gradient_1-5);}.cls-63{fill:url(#linear-gradient-32);}.cls-64{fill:url(#Radial_Gradient_1-6);}.cls-65{fill:url(#linear-gradient-33);}.cls-66{fill:url(#Radial_Gradient_1-7);}.cls-67{fill:url(#linear-gradient-34);}.cls-68{fill:url(#Radial_Gradient_1-8);}.cls-69{fill:url(#linear-gradient-35);}.cls-70{fill:url(#Radial_Gradient_1-9);}.cls-71{fill:url(#linear-gradient-36);}.cls-72{fill:url(#Radial_Gradient_1-10);}.cls-73{fill:url(#linear-gradient-37);}.cls-74{fill:url(#Radial_Gradient_1-11);}.cls-75{fill:url(#linear-gradient-38);}.cls-76{fill:url(#Radial_Gradient_1-12);}.cls-77{fill:url(#linear-gradient-39);}.cls-78{fill:url(#Radial_Gradient_1-13);}.cls-79{fill:url(#linear-gradient-40);}.cls-80{fill:url(#Radial_Gradient_1-14);}.cls-81{fill:url(#linear-gradient-41);}.cls-82{fill:url(#Radial_Gradient_1-15);}.cls-83{fill:url(#linear-gradient-42);}.cls-84{fill:url(#Radial_Gradient_1-16);}.cls-85{fill:url(#linear-gradient-43);}.cls-86{fill:url(#Radial_Gradient_1-17);}</style><linearGradient id="linear-gradient" x1="152.46" y1="288.34" x2="198.67" y2="201.4" gradientUnits="userSpaceOnUse"><stop offset="0" stop-color="#45108a"/><stop offset="0.54" stop-color="#7c1dc9"/><stop offset="0.63" stop-color="#6e41d2"/><stop offset="0.82" stop-color="#4c9be8"/><stop offset="1" stop-color="#2af6ff"/></linearGradient><linearGradient id="linear-gradient-2" x1="266.69" y1="268.67" x2="238.03" y2="201.28" xlink:href="#linear-gradient"/><linearGradient id="linear-gradient-3" x1="326.67" y1="265.69" x2="248.8" y2="202.05" xlink:href="#linear-gradient"/><linearGradient id="linear-gradient-4" x1="379.16" y1="278.21" x2="266.22" y2="196.67" xlink:href="#linear-gradient"/><linearGradient id="linear-gradient-5" x1="0" y1="185.66" x2="161.63" y2="185.66" xlink:href="#linear-gradient"/><linearGradient id="linear-gradient-6" x1="158.54" y1="242.29" x2="196.59" y2="204.78" xlink:href="#linear-gradient"/><linearGradient id="linear-gradient-7" x1="345.11" y1="124.79" x2="309.23" y2="164.2" xlink:href="#linear-gradient"/><linearGradient id="linear-gradient-8" x1="384.58" y1="216.49" x2="276.54" y2="188.36" xlink:href="#linear-gradient"/><linearGradient id="linear-gradient-9" x1="226.55" y1="295.97" x2="204.95" y2="187.93" xlink:href="#linear-gradient"/><linearGradient id="linear-gradient-10" x1="117.06" y1="220.07" x2="182.49" y2="220.07" xlink:href="#linear-gradient"/><linearGradient id="linear-gradient-11" x1="305.4" y1="234.65" x2="253.3" y2="196.88" xlink:href="#linear-gradient"/><linearGradient id="linear-gradient-12" x1="66.48" y1="179.12" x2="151.2" y2="179.12" xlink:href="#linear-gradient"/><linearGradient id="linear-gradient-13" x1="301.62" y1="29.33" x2="274.44" y2="91.31" xlink:href="#linear-gradient"/><linearGradient id="linear-gradient-14" x1="38.65" y1="221.56" x2="172.06" y2="221.56" xlink:href="#linear-gradient"/><linearGradient id="linear-gradient-15" x1="361.6" y1="170.48" x2="305.06" y2="176.46" xlink:href="#linear-gradient"/><linearGradient id="linear-gradient-16" x1="357.77" y1="67.23" x2="289.28" y2="117.24" xlink:href="#linear-gradient"/><linearGradient id="linear-gradient-17" x1="215.5" y1="21.2" x2="239.42" y2="94.86" xlink:href="#linear-gradient"/><linearGradient id="linear-gradient-18" x1="19.24" y1="144.77" x2="140.77" y2="144.77" xlink:href="#linear-gradient"/><linearGradient id="linear-gradient-19" x1="61.1" y1="142.05" x2="130.34" y2="142.05" xlink:href="#linear-gradient"/><linearGradient id="linear-gradient-20" x1="131.08" y1="59.22" x2="216.84" y2="59.22" xlink:href="#linear-gradient"/><linearGradient id="linear-gradient-21" x1="51.99" y1="109.82" x2="150.15" y2="109.82" xlink:href="#linear-gradient"/><linearGradient id="linear-gradient-22" x1="393.49" y1="216.74" x2="295.23" y2="167.82" xlink:href="#linear-gradient"/><linearGradient id="linear-gradient-23" x1="95.21" y1="93.48" x2="188.01" y2="93.48" xlink:href="#linear-gradient"/><linearGradient id="linear-gradient-24" x1="396.43" y1="71.24" x2="299.67" y2="128.87" xlink:href="#linear-gradient"/><linearGradient id="linear-gradient-25" x1="125.32" y1="146.36" x2="313.4" y2="146.36" gradientUnits="userSpaceOnUse"><stop offset="0.04" stop-color="#25054d"/><stop offset="0.14" stop-color="#260550"/><stop offset="0.21" stop-color="#2b0759"/><stop offset="0.27" stop-color="#330a67"/><stop offset="0.32" stop-color="#3e0e7d"/><stop offset="0.34" stop-color="#45108a"/><stop offset="0.38" stop-color="#4e1294"/><stop offset="0.44" stop-color="#6518af"/><stop offset="0.49" stop-color="#7c1dc9"/><stop offset="0.53" stop-color="#6b19b5"/><stop offset="0.59" stop-color="#45108a"/><stop offset="0.66" stop-color="#3c0d79"/><stop offset="0.79" stop-color="#2f0961"/><stop offset="0.9" stop-color="#280652"/><stop offset="1" stop-color="#25054d"/></linearGradient><linearGradient id="New_Gradient_Swatch_copy_25" x1="289.19" y1="-38.73" x2="211.8" y2="161.04" gradientUnits="userSpaceOnUse"><stop offset="0" stop-color="#25054d"/><stop offset="1" stop-color="#45108a"/></linearGradient><linearGradient id="linear-gradient-26" x1="129.62" y1="138.44" x2="309.05" y2="138.44" gradientUnits="userSpaceOnUse"><stop offset="0.04" stop-color="#b086cc"/><stop offset="0.21" stop-color="#c1a1d5"/><stop offset="0.29" stop-color="#c8abda"/><stop offset="0.41" stop-color="#dbc6e7"/><stop offset="0.51" stop-color="#ebdef3"/><stop offset="0.56" stop-color="#e4d2ee"/><stop offset="0.69" stop-color="#d6bce6"/><stop offset="0.78" stop-color="#d1b4e3"/><stop offset="0.78" stop-color="#cfb2e2"/><stop offset="0.86" stop-color="#be9ad6"/><stop offset="0.94" stop-color="#b48bcf"/><stop offset="1" stop-color="#b086cc"/></linearGradient><linearGradient id="linear-gradient-27" x1="125.17" y1="132.76" x2="313.25" y2="132.76" xlink:href="#linear-gradient-25"/><linearGradient id="New_Gradient_Swatch_copy_25-2" x1="289.04" y1="-55.53" x2="211.65" y2="144.24" xlink:href="#New_Gradient_Swatch_copy_25"/><linearGradient id="New_Gradient_Swatch_copy_25-3" x1="246.95" y1="53.12" x2="187.01" y2="207.85" xlink:href="#New_Gradient_Swatch_copy_25"/><radialGradient id="Radial_Gradient_1" cx="219.2" cy="151.88" r="69.34" gradientUnits="userSpaceOnUse"><stop offset="0" stop-color="#fff"/><stop offset="1"/></radialGradient><linearGradient id="linear-gradient-28" x1="306.03" y1="147.8" x2="316.54" y2="164.77" gradientUnits="userSpaceOnUse"><stop offset="0.01" stop-color="#b086cc"/><stop offset="0.36" stop-color="#c1a1d5"/><stop offset="0.38" stop-color="#c8abda"/><stop offset="0.41" stop-color="#dac6e6"/><stop offset="0.45" stop-color="#f7f2f9"/><stop offset="0.46" stop-color="#fff"/><stop offset="0.49" stop-color="#f1e9f7"/><stop offset="0.53" stop-color="#e0ccec"/><stop offset="0.57" stop-color="#d5bae5"/><stop offset="0.6" stop-color="#d1b4e3"/><stop offset="0.63" stop-color="#bcbce3"/><stop offset="0.72" stop-color="#91cce2"/><stop offset="0.8" stop-color="#6fd8e2"/><stop offset="0.87" stop-color="#57e1e1"/><stop offset="0.94" stop-color="#48e6e1"/><stop offset="1" stop-color="#43e8e1"/></linearGradient><radialGradient id="Radial_Gradient_1-2" cx="307.79" cy="156.52" r="6.97" xlink:href="#Radial_Gradient_1"/><linearGradient id="linear-gradient-29" x1="295.58" y1="153.84" x2="306.09" y2="170.81" xlink:href="#linear-gradient-28"/><radialGradient id="Radial_Gradient_1-3" cx="297.34" cy="162.56" r="6.97" xlink:href="#Radial_Gradient_1"/><linearGradient id="linear-gradient-30" x1="285.13" y1="159.88" x2="295.64" y2="176.85" xlink:href="#linear-gradient-28"/><radialGradient id="Radial_Gradient_1-4" cx="286.89" cy="168.6" r="6.97" xlink:href="#Radial_Gradient_1"/><linearGradient id="linear-gradient-31" x1="274.68" y1="165.91" x2="285.19" y2="182.88" xlink:href="#linear-gradient-28"/><radialGradient id="Radial_Gradient_1-5" cx="276.45" cy="174.63" r="6.97" xlink:href="#Radial_Gradient_1"/><linearGradient id="linear-gradient-32" x1="264.23" y1="171.95" x2="274.74" y2="188.92" xlink:href="#linear-gradient-28"/><radialGradient id="Radial_Gradient_1-6" cx="266" cy="180.67" r="6.97" xlink:href="#Radial_Gradient_1"/><linearGradient id="linear-gradient-33" x1="253.79" y1="177.99" x2="264.29" y2="194.96" xlink:href="#linear-gradient-28"/><radialGradient id="Radial_Gradient_1-7" cx="255.55" cy="186.71" r="6.97" xlink:href="#Radial_Gradient_1"/><linearGradient id="linear-gradient-34" x1="243.29" y1="184.03" x2="253.8" y2="200.99" xlink:href="#linear-gradient-28"/><radialGradient id="Radial_Gradient_1-8" cx="245.05" cy="192.74" r="6.97" xlink:href="#Radial_Gradient_1"/><linearGradient id="linear-gradient-35" x1="232.84" y1="190.06" x2="243.35" y2="207.03" xlink:href="#linear-gradient-28"/><radialGradient id="Radial_Gradient_1-9" cx="234.6" cy="198.78" r="6.97" xlink:href="#Radial_Gradient_1"/><linearGradient id="linear-gradient-36" x1="7801.8" y1="147.8" x2="7812.31" y2="164.77" gradientTransform="matrix(-1, 0, 0, 1, 7934.55, 0)" xlink:href="#linear-gradient-28"/><radialGradient id="Radial_Gradient_1-10" cx="7803.56" cy="156.52" r="6.97" gradientTransform="matrix(-1, 0, 0, 1, 7934.55, 0)" xlink:href="#Radial_Gradient_1"/><linearGradient id="linear-gradient-37" x1="7791.36" y1="153.84" x2="7801.86" y2="170.8" gradientTransform="matrix(-1, 0, 0, 1, 7934.55, 0)" xlink:href="#linear-gradient-28"/><radialGradient id="Radial_Gradient_1-11" cx="7793.12" cy="162.55" r="6.97" gradientTransform="matrix(-1, 0, 0, 1, 7934.55, 0)" xlink:href="#Radial_Gradient_1"/><linearGradient id="linear-gradient-38" x1="7780.91" y1="159.87" x2="7791.42" y2="176.84" gradientTransform="matrix(-1, 0, 0, 1, 7934.55, 0)" xlink:href="#linear-gradient-28"/><radialGradient id="Radial_Gradient_1-12" cx="7782.67" cy="168.59" r="6.97" gradientTransform="matrix(-1, 0, 0, 1, 7934.55, 0)" xlink:href="#Radial_Gradient_1"/><linearGradient id="linear-gradient-39" x1="7770.47" y1="165.91" x2="7780.97" y2="182.87" gradientTransform="matrix(-1, 0, 0, 1, 7934.55, 0)" xlink:href="#linear-gradient-28"/><radialGradient id="Radial_Gradient_1-13" cx="7772.23" cy="174.62" r="6.97" gradientTransform="matrix(-1, 0, 0, 1, 7934.55, 0)" xlink:href="#Radial_Gradient_1"/><linearGradient id="linear-gradient-40" x1="7760.02" y1="171.94" x2="7770.53" y2="188.91" gradientTransform="matrix(-1, 0, 0, 1, 7934.55, 0)" xlink:href="#linear-gradient-28"/><radialGradient id="Radial_Gradient_1-14" cx="7761.78" cy="180.66" r="6.97" gradientTransform="matrix(-1, 0, 0, 1, 7934.55, 0)" xlink:href="#Radial_Gradient_1"/><linearGradient id="linear-gradient-41" x1="7749.58" y1="177.98" x2="7760.08" y2="194.94" gradientTransform="matrix(-1, 0, 0, 1, 7934.55, 0)" xlink:href="#linear-gradient-28"/><radialGradient id="Radial_Gradient_1-15" cx="7751.34" cy="186.69" r="6.97" gradientTransform="matrix(-1, 0, 0, 1, 7934.55, 0)" xlink:href="#Radial_Gradient_1"/><linearGradient id="linear-gradient-42" x1="7739.21" y1="184.01" x2="7749.71" y2="200.98" gradientTransform="matrix(-1, 0, 0, 1, 7934.55, 0)" xlink:href="#linear-gradient-28"/><radialGradient id="Radial_Gradient_1-16" cx="7740.97" cy="192.73" r="6.97" gradientTransform="matrix(-1, 0, 0, 1, 7934.55, 0)" xlink:href="#Radial_Gradient_1"/><linearGradient id="linear-gradient-43" x1="7728.76" y1="190.05" x2="7739.27" y2="207.01" gradientTransform="matrix(-1, 0, 0, 1, 7934.55, 0)" xlink:href="#linear-gradient-28"/><radialGradient id="Radial_Gradient_1-17" cx="7730.52" cy="198.76" r="6.97" gradientTransform="matrix(-1, 0, 0, 1, 7934.55, 0)" xlink:href="#Radial_Gradient_1"/></defs><g class="cls-1"><g id="Capa_2" data-name="Capa 2"><g id="Layer_1" data-name="Layer 1"><path class="cls-2" d="M219.51,234.14,185,213.8l9.62-5.46a9.08,9.08,0,0,0,2.65.39,8.32,8.32,0,0,0,4.12-1,3.57,3.57,0,0,0,2-3,3.48,3.48,0,0,0-2-2.94,8.24,8.24,0,0,0-4.08-1,8.43,8.43,0,0,0-4.12,1,3.57,3.57,0,0,0-2,3,3.16,3.16,0,0,0,1.25,2.43l-11.52,6.54,34.51,20.32-52,28.69,26.48,16.15-31.08,17.28-27.6-15.94a3.12,3.12,0,0,0,1.11-2.3,3.47,3.47,0,0,0-2-3,8.91,8.91,0,0,0-8.2,0,3.53,3.53,0,0,0-2,3,3.46,3.46,0,0,0,2,2.95,8.24,8.24,0,0,0,4.08,1,9.14,9.14,0,0,0,3.11-.54l0,.08,29.52,17.09L193.9,279l-26.45-16.14ZM194.18,203.6a6.43,6.43,0,0,1,3.1-.73,6.26,6.26,0,0,1,3.06.72c.61.35,1,.78,1,1.17s-.36.84-1,1.21a7.25,7.25,0,0,1-6.16,0c-.62-.36-1-.78-1-1.18S193.55,204,194.18,203.6Zm-71.1,75.58c-.61-.35-1-.78-1-1.18s.36-.84,1-1.2a6.43,6.43,0,0,1,3.1-.73,6.26,6.26,0,0,1,3.06.72c.61.35,1,.78,1,1.18s-.36.84-1,1.2A7.24,7.24,0,0,1,123.08,279.18Z"/><path class="cls-3" d="M246.29,207.19a3.14,3.14,0,0,0,1.2-2.39,3.55,3.55,0,0,0-2-3,8.4,8.4,0,0,0-4.12-1,8.3,8.3,0,0,0-4.08,1,3.47,3.47,0,0,0-2,2.94,3.55,3.55,0,0,0,2,3,8.32,8.32,0,0,0,4.12,1,8.9,8.9,0,0,0,2.72-.42l28.51,16.27-52.55,29.85,36.46,22.08L291.15,256a9.15,9.15,0,0,0,2.91.47,8.27,8.27,0,0,0,4.08-1,3.46,3.46,0,0,0,2-2.94,3.56,3.56,0,0,0-2-3,8.47,8.47,0,0,0-4.13-1,8.23,8.23,0,0,0-4.07,1,3.47,3.47,0,0,0-2,2.94,3.16,3.16,0,0,0,1.13,2.33l-32.45,19.33-32.46-19.66,52.64-29.9Zm-8-1.22c-.63-.37-1-.8-1-1.21s.35-.82,1-1.17a6.29,6.29,0,0,1,3.06-.72,6.5,6.5,0,0,1,3.11.73c.62.36,1,.8,1,1.2s-.35.82-1,1.18A7.25,7.25,0,0,1,238.33,206Zm52.61,45.34a6.95,6.95,0,0,1,6.16,0c.62.36,1,.8,1,1.2s-.36.82-1,1.18a7.22,7.22,0,0,1-6.16,0c-.63-.36-1-.8-1-1.2S290.32,251.67,290.94,251.31Z"/><path class="cls-4" d="M300.11,274.79a3.18,3.18,0,0,0-1.15-2.35l49.69-30.95L267.5,195a3,3,0,0,0,.85-2,3.52,3.52,0,0,0-2-3,8.91,8.91,0,0,0-8.2,0,3.47,3.47,0,0,0-2,3,3.54,3.54,0,0,0,2,3,8.35,8.35,0,0,0,4.12,1,8.81,8.81,0,0,0,3.32-.63l79,45.25-47.74,29.76a9,9,0,0,0-2.93-.49,8.24,8.24,0,0,0-4.08,1,3.48,3.48,0,0,0-2,2.95,3.53,3.53,0,0,0,2,3,8.91,8.91,0,0,0,8.2,0A3.48,3.48,0,0,0,300.11,274.79Zm-40.93-80.63c-.62-.36-1-.8-1-1.2s.35-.83,1-1.18a6.26,6.26,0,0,1,3.06-.72,6.43,6.43,0,0,1,3.1.73c.63.36,1,.8,1,1.2s-.35.83-1,1.18A7.24,7.24,0,0,1,259.18,194.16ZM297.1,276a7.22,7.22,0,0,1-6.16,0c-.63-.37-1-.8-1-1.2s.35-.83,1-1.18a6.26,6.26,0,0,1,3.06-.72,6.72,6.72,0,0,1,2.62.51l.23.37.25-.15c.63.37,1,.8,1,1.2S297.72,275.62,297.1,276Z"/><path class="cls-5" d="M384,267.56a8.91,8.91,0,0,0-8.2,0,3.48,3.48,0,0,0-2,2.95,3,3,0,0,0,.8,2L354.68,284l-24.94-14.61,42.14-26.1L278,189.05a3,3,0,0,0,.77-2,3.55,3.55,0,0,0-2-3,8.43,8.43,0,0,0-4.12-1,8.27,8.27,0,0,0-4.08,1,3.46,3.46,0,0,0-2,2.94,3.56,3.56,0,0,0,2,3,8.35,8.35,0,0,0,4.12,1,8.76,8.76,0,0,0,3.44-.68l91.76,53-42.12,26.09,28.88,16.92,21.81-12.55a8.68,8.68,0,0,0,3.48.7,8.27,8.27,0,0,0,4.08-1,3.47,3.47,0,0,0,2-3A3.53,3.53,0,0,0,384,267.56Zm-114.41-79.3c-.63-.37-1-.81-1-1.21s.36-.82,1-1.18a6.95,6.95,0,0,1,6.16,0c.63.36,1,.8,1,1.2s-.35.82-1,1.18A7.25,7.25,0,0,1,269.61,188.26ZM383,271.7a6.26,6.26,0,0,1-3.06.72,6.43,6.43,0,0,1-3.1-.73c-.63-.36-1-.8-1-1.2s.35-.83,1-1.18a6.22,6.22,0,0,1,3.05-.72,6.5,6.5,0,0,1,3.11.73c.62.36,1,.8,1,1.2S383.63,271.35,383,271.7Z"/><path class="cls-6" d="M425.83,123.54a8.35,8.35,0,0,0-4.12-1,8.24,8.24,0,0,0-4.08,1l-36.7-20.39,10.92-6.3a8.44,8.44,0,0,0,3.95.92,8.23,8.23,0,0,0,4.07-1,3.48,3.48,0,0,0,2-3,3.53,3.53,0,0,0-2-3,9,9,0,0,0-8.2,0,3.47,3.47,0,0,0-2,3,2.89,2.89,0,0,0,.53,1.65l-13.41,7.73L416.07,125a2.83,2.83,0,0,0-.43,1.48,3.55,3.55,0,0,0,2,3,8.43,8.43,0,0,0,4.12,1,8.24,8.24,0,0,0,4.08-1,3.47,3.47,0,0,0,2-2.94A3.57,3.57,0,0,0,425.83,123.54ZM392.67,92.61a6.29,6.29,0,0,1,3.06-.72,6.43,6.43,0,0,1,3.1.73c.63.37,1,.8,1,1.2s-.35.83-1,1.18a7.24,7.24,0,0,1-6.17,0c-.62-.36-1-.8-1-1.2S392.06,93,392.67,92.61Zm32.16,35.08a6.95,6.95,0,0,1-6.16,0c-.63-.36-1-.8-1-1.2a.87.87,0,0,1,.18-.48l.36.2.52-.94a6.93,6.93,0,0,1,6.07.06c.63.36,1,.8,1,1.2S425.44,127.33,424.83,127.69Z"/><path class="cls-7" d="M159.62,184.12a3.55,3.55,0,0,0,2-3,3.44,3.44,0,0,0-2-2.94,8.92,8.92,0,0,0-8.19,0,3.54,3.54,0,0,0-2,3,2.93,2.93,0,0,0,.66,1.82l-37.49,21.14L91,192.85,67.72,205.17,11.3,169.81a3,3,0,0,0,.89-2.1,3.53,3.53,0,0,0-2-3,8.36,8.36,0,0,0-4.13-1,8.34,8.34,0,0,0-4.07,1,3.48,3.48,0,0,0-2,3,3.52,3.52,0,0,0,2,3,8.32,8.32,0,0,0,4.12,1,8.39,8.39,0,0,0,3.91-.91l-.31.5,58,36.33L91.11,195.2l21.54,11.27,39.21-22.11,0,0a8.56,8.56,0,0,0,3.66.79A8.43,8.43,0,0,0,159.62,184.12ZM9.19,168.89a7.22,7.22,0,0,1-6.16,0c-.63-.36-1-.8-1-1.2s.35-.83,1-1.18a6.22,6.22,0,0,1,3.05-.72,6.5,6.5,0,0,1,3.11.73c.62.36,1,.8,1,1.2S9.8,168.54,9.19,168.89Zm142.29,12.3c0-.41.36-.84,1-1.21a6.5,6.5,0,0,1,3.11-.73,6.4,6.4,0,0,1,3.06.72c.61.36,1,.78,1,1.18s-.36.84-1,1.2a7.22,7.22,0,0,1-6.16,0C151.83,182,151.48,181.58,151.48,181.19Z"/><path class="cls-8" d="M190.91,201.83a3.55,3.55,0,0,0,2-3,3.47,3.47,0,0,0-2-2.94,8.94,8.94,0,0,0-8.2,0,3.57,3.57,0,0,0-2,3,3.19,3.19,0,0,0,1.31,2.47l-22.67,12.85,32.35,18.65-13.33,7.81L165.46,233a3,3,0,0,0,.9-2.1,3.55,3.55,0,0,0-2-3,8.43,8.43,0,0,0-4.12-1,8.24,8.24,0,0,0-4.08,1,3.47,3.47,0,0,0-2,2.94,3.57,3.57,0,0,0,2,3,8.35,8.35,0,0,0,4.12,1,8.92,8.92,0,0,0,3.26-.59L178.37,243l17.4-10.18-32.3-18.63,20.42-11.57-.22-.37a8.92,8.92,0,0,0,3.12.54A8.43,8.43,0,0,0,190.91,201.83Zm-33.72,30.22c-.63-.37-1-.8-1-1.21s.36-.82,1-1.17a6.26,6.26,0,0,1,3.06-.72,6.43,6.43,0,0,1,3.1.73c.63.36,1,.8,1,1.2s-.35.83-1,1.18A7.25,7.25,0,0,1,157.19,232.05Zm25.57-33.15c0-.4.36-.84,1-1.2a6.95,6.95,0,0,1,6.16,0c.62.36,1,.79,1,1.18s-.36.84-1,1.2a7.22,7.22,0,0,1-6.16,0C183.11,199.72,182.76,199.29,182.76,198.9Z"/><path class="cls-9" d="M314.37,159.5a8.35,8.35,0,0,0-4.08,1,3.48,3.48,0,0,0-2,2.95,3.52,3.52,0,0,0,2,3,8.91,8.91,0,0,0,8.2,0,3.47,3.47,0,0,0,2-2.95,3,3,0,0,0-.74-1.92l20-12.63-19.22-11.11,17.32-10.48a8.84,8.84,0,0,0,3.4.65,8.24,8.24,0,0,0,4.08-1,3.46,3.46,0,0,0,2-2.94,3.56,3.56,0,0,0-2-3,8.43,8.43,0,0,0-4.12-1,8.24,8.24,0,0,0-4.08,1,3.47,3.47,0,0,0-2,2.94,3,3,0,0,0,.87,2.06l-19.46,11.79L335.85,149,318,160.26A8.68,8.68,0,0,0,314.37,159.5Zm23.8-36.67a6.35,6.35,0,0,1,3.06-.71,6.43,6.43,0,0,1,3.1.73c.63.36,1,.8,1,1.2s-.36.82-1,1.18a7.25,7.25,0,0,1-6.16,0c-.63-.37-1-.81-1-1.21S337.55,123.19,338.17,122.83Zm-20.68,41.82a7.22,7.22,0,0,1-6.16,0c-.63-.36-1-.8-1-1.2s.35-.83,1-1.18a6.24,6.24,0,0,1,3.06-.72,6.45,6.45,0,0,1,3.1.73c.63.36,1,.8,1,1.2S318.1,164.3,317.49,164.65Z"/><path class="cls-10" d="M287.2,178.22a9,9,0,0,0-8.2,0,3.48,3.48,0,0,0-2,3,3.57,3.57,0,0,0,2,3,8.94,8.94,0,0,0,8.1.06l68.95,39.59.53.3L380.69,209a8.5,8.5,0,0,0,3.68.79,8.33,8.33,0,0,0,4.07-1,3.48,3.48,0,0,0,2-2.95,3.55,3.55,0,0,0-2-3,8.43,8.43,0,0,0-4.12-1,8.27,8.27,0,0,0-4.08,1,3.47,3.47,0,0,0-2,2.94,3,3,0,0,0,.7,1.87l-22.39,14-67.82-38.95a2.86,2.86,0,0,0,.48-1.56A3.54,3.54,0,0,0,287.2,178.22Zm94,26.4a6.26,6.26,0,0,1,3.06-.72,6.43,6.43,0,0,1,3.1.73c.63.36,1,.8,1,1.2s-.35.83-1,1.18a7.24,7.24,0,0,1-6.17,0c-.62-.37-1-.8-1-1.21S380.63,205,381.24,204.62ZM280,182.35c-.63-.36-1-.8-1-1.2s.35-.82,1-1.18a6.9,6.9,0,0,1,6.16,0c.63.37,1,.8,1,1.21s-.35.82-1,1.17A7.22,7.22,0,0,1,280,182.35Z"/><path class="cls-6" d="M272.52,249.56a8.24,8.24,0,0,0,4.08-1,3.47,3.47,0,0,0,2-2.94,3.55,3.55,0,0,0-2-3,8.94,8.94,0,0,0-8.2,0,3.47,3.47,0,0,0-2,2.94,2.9,2.9,0,0,0,.5,1.59l-9,5.4.17.29a8.41,8.41,0,0,0-4-1,8.23,8.23,0,0,0-4.07,1,3.45,3.45,0,0,0-2,2.94,3.55,3.55,0,0,0,2,3,8.43,8.43,0,0,0,4.12,1,8.3,8.3,0,0,0,4.08-1,3.46,3.46,0,0,0,2-2.94,3,3,0,0,0-.7-1.86l9-5.42A8.36,8.36,0,0,0,272.52,249.56Zm-3.12-5.15a7,7,0,0,1,6.16,0c.63.37,1,.8,1,1.21s-.35.82-1,1.17a7.22,7.22,0,0,1-6.16,0c-.63-.36-1-.8-1-1.2S268.78,244.77,269.4,244.41Zm-12.23,12.64a7.22,7.22,0,0,1-6.16,0c-.63-.36-1-.8-1-1.2s.35-.82,1-1.18a7,7,0,0,1,6.17,0c.62.36,1,.8,1,1.2S257.78,256.7,257.17,257.05Z"/><path class="cls-11" d="M236.38,287.08a8.32,8.32,0,0,0-4.12-1,8.78,8.78,0,0,0-3.48.7l-38.36-22.21,57.32-32.49-23.47-14a3,3,0,0,0,.71-1.89,3.55,3.55,0,0,0-2-3,8.4,8.4,0,0,0-4.12-1,8.3,8.3,0,0,0-4.08,1,3.47,3.47,0,0,0-2,2.94,3.54,3.54,0,0,0,2,3,8.32,8.32,0,0,0,4.12,1,8.64,8.64,0,0,0,3.56-.74L243.68,232l-57.37,32.52,40.63,23.52a3,3,0,0,0-.75,1.94,3.53,3.53,0,0,0,2,3,9,9,0,0,0,8.2,0,3.48,3.48,0,0,0,2-2.95A3.54,3.54,0,0,0,236.38,287.08Zm-20.56-69.69c-.63-.37-1-.8-1-1.21s.35-.82,1-1.17a6.29,6.29,0,0,1,3.06-.72A6.5,6.5,0,0,1,222,215c.62.36,1,.8,1,1.2s-.35.82-1,1.18A7.22,7.22,0,0,1,215.82,217.39Zm19.56,73.83a7.22,7.22,0,0,1-6.16,0c-.63-.36-1-.8-1-1.2s.35-.83,1-1.18a6.24,6.24,0,0,1,3.06-.72,6.43,6.43,0,0,1,3.1.73c.63.36,1,.8,1,1.2S236,290.87,235.38,291.22Z"/><path class="cls-12" d="M147.64,247.15a3.55,3.55,0,0,0,2,3,8.94,8.94,0,0,0,8.2,0,3.46,3.46,0,0,0,2-2.94,3.56,3.56,0,0,0-2-3,8.46,8.46,0,0,0-4.12-1,8.36,8.36,0,0,0-3.94.92l-28.66-16.38,52-30.91-.44-.74a8.48,8.48,0,0,0,3.72.82,8.32,8.32,0,0,0,4.12-1,3.53,3.53,0,0,0,2-3,3.48,3.48,0,0,0-2-3,8.91,8.91,0,0,0-8.2,0,3.56,3.56,0,0,0-2,3,3.17,3.17,0,0,0,1.24,2.42L117.06,227.8l31.08,17.75A2.83,2.83,0,0,0,147.64,247.15Zm25.68-55.36a6.43,6.43,0,0,1,3.1-.73,6.24,6.24,0,0,1,3.06.72c.62.35,1,.78,1,1.18s-.36.84-1,1.2a7.22,7.22,0,0,1-6.16,0c-.61-.35-1-.78-1-1.18S172.69,192.15,173.32,191.79Zm-19.61,53.47a6.31,6.31,0,0,1,3.1.73c.63.36,1,.8,1,1.2s-.36.82-1,1.18a7.25,7.25,0,0,1-6.16,0c-.63-.37-1-.81-1-1.21s.35-.82,1-1.18A6.35,6.35,0,0,1,153.71,245.26Z"/><path class="cls-13" d="M305.63,225.83a8.32,8.32,0,0,0-4.12-1,8.46,8.46,0,0,0-3.82.87l-40.56-24.81a3,3,0,0,0,.79-2,3.55,3.55,0,0,0-2-3,8.94,8.94,0,0,0-8.2,0,3.46,3.46,0,0,0-2,2.94,3.55,3.55,0,0,0,2,3,8.4,8.4,0,0,0,4.12,1,8.74,8.74,0,0,0,3.43-.68L296,227.05a2.92,2.92,0,0,0-.57,1.71,3.55,3.55,0,0,0,2,3,9,9,0,0,0,8.2,0,3.48,3.48,0,0,0,2-3A3.54,3.54,0,0,0,305.63,225.83Zm-56.87-25.77c-.63-.36-1-.8-1-1.2s.35-.82,1-1.18a7,7,0,0,1,6.16,0c.63.37,1,.81,1,1.21s-.35.82-1,1.17A7.22,7.22,0,0,1,248.76,200.06ZM304.63,230a7.22,7.22,0,0,1-6.16,0c-.63-.37-1-.8-1-1.2s.35-.83,1-1.18a6.26,6.26,0,0,1,3.06-.72,6.43,6.43,0,0,1,3.1.73c.63.36,1,.8,1,1.2S305.25,229.62,304.63,230Z"/><path class="cls-14" d="M76.66,165.36a8.43,8.43,0,0,0-4.12-1,8.3,8.3,0,0,0-4.08,1,3.47,3.47,0,0,0-2,3,3.53,3.53,0,0,0,2,3,8.29,8.29,0,0,0,4.12,1,8.72,8.72,0,0,0,3.46-.69l40.24,22.32,26-15-.08-.15a9,9,0,0,0,2.8.44,8.32,8.32,0,0,0,4.12-1,3.54,3.54,0,0,0,2-3,3.47,3.47,0,0,0-2-2.94,8.3,8.3,0,0,0-4.08-1,8.43,8.43,0,0,0-4.12,1,3.55,3.55,0,0,0-2,3,3.19,3.19,0,0,0,1.3,2.47l-24,13.79L77.92,170.27a3,3,0,0,0,.75-1.94A3.55,3.55,0,0,0,76.66,165.36ZM142,174.08a6.43,6.43,0,0,1,3.1-.73,6.29,6.29,0,0,1,3.06.72c.61.35,1,.78,1,1.17s-.36.84-1,1.21a7.22,7.22,0,0,1-6.16,0c-.61-.36-1-.78-1-1.18S141.41,174.44,142,174.08ZM69.5,169.5c-.62-.37-1-.8-1-1.2s.35-.83,1-1.18a6.29,6.29,0,0,1,3.06-.72,6.43,6.43,0,0,1,3.1.73c.63.36,1,.8,1,1.2a1.26,1.26,0,0,1-.56.91l0,0,0,.05a2.27,2.27,0,0,1-.34.24A7.24,7.24,0,0,1,69.5,169.5Z"/><path class="cls-6" d="M202.88,41.91a3.55,3.55,0,0,0,2,3,8.94,8.94,0,0,0,8.2,0,3.46,3.46,0,0,0,2-2.94,3.57,3.57,0,0,0-2-3A8.46,8.46,0,0,0,209,38a8.35,8.35,0,0,0-4,1l-34.2-18.88L200.08,2.35l65.37,36.12L239.2,54.81a1.67,1.67,0,0,0-.26-.17,8.94,8.94,0,0,0-8.2,0,3.46,3.46,0,0,0-2,2.94,3.55,3.55,0,0,0,2,3,8.43,8.43,0,0,0,4.12,1,8.3,8.3,0,0,0,4.08-1,3.46,3.46,0,0,0,2-2.94,2.8,2.8,0,0,0-.32-1.29l28.84-18L200.55.29,200,0l-33.4,20.15,36.69,20.26A2.88,2.88,0,0,0,202.88,41.91ZM238,58.78a6.29,6.29,0,0,1-3.06.72,6.43,6.43,0,0,1-3.1-.73c-.63-.36-1-.8-1-1.2s.35-.82,1-1.18a7,7,0,0,1,6.16,0c.63.37,1,.81,1,1.21S238.56,58.43,238,58.78Zm-25.9-18c.63.36,1,.8,1,1.2s-.36.82-1,1.18a7.22,7.22,0,0,1-6.16,0c-.63-.37-1-.81-1-1.21a.94.94,0,0,1,.2-.51l.15.08.29-.52a2.1,2.1,0,0,1,.33-.22A6.24,6.24,0,0,1,209,40,6.43,6.43,0,0,1,212.05,40.75Z"/><path class="cls-15" d="M304.27,36,263.55,61.33,299,80.79l-35.34,20.58,1,1.76,38.46-22.39L267.59,61.22l38.69-24,0,0a9,9,0,0,0,3,.5,8.35,8.35,0,0,0,4.08-1,3.48,3.48,0,0,0,2-3,3.52,3.52,0,0,0-2-3,8.91,8.91,0,0,0-8.2,0,3.48,3.48,0,0,0-2,2.95A3.2,3.2,0,0,0,304.27,36Zm1.85-3.53a6.26,6.26,0,0,1,3.06-.72,6.43,6.43,0,0,1,3.1.73c.63.36,1,.8,1,1.2s-.35.83-1,1.18a7.22,7.22,0,0,1-6.16,0c-.63-.36-1-.8-1-1.2S305.51,32.86,306.12,32.51Z"/><path class="cls-6" d="M44.73,238.9,85.64,215a8.64,8.64,0,0,0,3.71.81,8.24,8.24,0,0,0,4.08-1,3.48,3.48,0,0,0,2-3,3.55,3.55,0,0,0-2-3,9,9,0,0,0-8.2,0,3.48,3.48,0,0,0-2,2.95,3,3,0,0,0,.68,1.83L44.71,236.53,22.89,223.92a2.92,2.92,0,0,0,.23-1.09,3.57,3.57,0,0,0-2-3,8.32,8.32,0,0,0-4.12-1,8.24,8.24,0,0,0-4.08,1,3.47,3.47,0,0,0-2,2.94,3.55,3.55,0,0,0,2,3,8.43,8.43,0,0,0,4.12,1,8.27,8.27,0,0,0,4.08-1,4.32,4.32,0,0,0,.42-.27Zm40.53-27.08c0-.4.35-.83,1-1.18a6.26,6.26,0,0,1,3.06-.72,6.43,6.43,0,0,1,3.1.73c.63.37,1,.8,1,1.2s-.35.83-1,1.18a7.22,7.22,0,0,1-6.16,0l-.27-.18-.2-.33-.11.07A1.12,1.12,0,0,1,85.26,211.82ZM14,224c-.63-.36-1-.8-1-1.2s.35-.82,1-1.18A6.35,6.35,0,0,1,17,220.9a6.31,6.31,0,0,1,3.1.73c.63.36,1,.8,1,1.2s-.36.82-1,1.18A7.26,7.26,0,0,1,14,224Z"/><path class="cls-16" d="M162.5,190.63l-.23-.4a8.59,8.59,0,0,0,3.66.79,8.32,8.32,0,0,0,4.12-1,3.55,3.55,0,0,0,2-3,3.47,3.47,0,0,0-2-2.94,8.24,8.24,0,0,0-4.08-1,8.46,8.46,0,0,0-4.12,1,3.56,3.56,0,0,0-2,3,3,3,0,0,0,.95,2.15l-111.76,64c-.08,0-.14-.09-.22-.14a8.43,8.43,0,0,0-4.12-1,8.24,8.24,0,0,0-4.08,1,3.47,3.47,0,0,0-2,2.94,3.55,3.55,0,0,0,2,3,8.94,8.94,0,0,0,8.2,0,3.47,3.47,0,0,0,2-2.94,2.78,2.78,0,0,0-.34-1.31Zm.39-4.74a6.95,6.95,0,0,1,6.16,0c.62.36,1,.79,1,1.18s-.36.84-1,1.2a7.22,7.22,0,0,1-6.16,0c-.61-.36-1-.79-1-1.18S162.27,186.25,162.89,185.89Zm-115,71.35a7.22,7.22,0,0,1-6.16,0c-.63-.36-1-.8-1-1.2s.35-.82,1-1.18a6.95,6.95,0,0,1,6.16,0c.63.36,1,.8,1,1.2S48.46,256.88,47.84,257.24Z"/><path class="cls-17" d="M328.57,185.21l25.94-15.45a9,9,0,0,0,3.09.53,8.3,8.3,0,0,0,4.08-1,3.47,3.47,0,0,0,2-3,3.53,3.53,0,0,0-2-3,9,9,0,0,0-8.2,0,3.47,3.47,0,0,0-2,2.95,3.15,3.15,0,0,0,1,2.25l-23.94,14.26-19.19-11.61a2.93,2.93,0,0,0,.68-1.84,3.57,3.57,0,0,0-2-3,8.94,8.94,0,0,0-8.2,0,3.47,3.47,0,0,0-2,2.94,3.55,3.55,0,0,0,2,3,8.43,8.43,0,0,0,4.12,1,8.24,8.24,0,0,0,4.08-1l.13-.08-.29.48Zm25.9-20.07a6.29,6.29,0,0,1,3.06-.72,6.43,6.43,0,0,1,3.1.73c.63.37,1,.8,1,1.2s-.35.83-1,1.18a7.22,7.22,0,0,1-6.16,0c-.63-.36-1-.8-1-1.2S353.86,165.49,354.47,165.14Zm-47.41,5.42a7.26,7.26,0,0,1-6.16,0c-.63-.36-1-.8-1-1.2s.35-.82,1-1.18a6.95,6.95,0,0,1,6.16,0c.63.36,1,.8,1,1.2S307.67,170.2,307.06,170.56Z"/><path class="cls-6" d="M307.05,58a3,3,0,0,0,.77-2,3.54,3.54,0,0,0-2-3,8.91,8.91,0,0,0-8.2,0,3.48,3.48,0,0,0-2,2.95,3.55,3.55,0,0,0,2,3,8.43,8.43,0,0,0,4.12,1,8.68,8.68,0,0,0,3.46-.7l18.26,10.81,33.34-20.18.13.08a9,9,0,0,0,8.2,0,3.48,3.48,0,0,0,2-2.95,3.52,3.52,0,0,0-2-3,8.91,8.91,0,0,0-8.2,0,3.48,3.48,0,0,0-2,3,2.85,2.85,0,0,0,.39,1.4L323.46,67.71Zm-8.4-.79c-.63-.36-1-.8-1-1.2s.35-.83,1-1.18a6.24,6.24,0,0,1,3.06-.72,6.43,6.43,0,0,1,3.1.73c.63.36,1,.8,1,1.2a1.28,1.28,0,0,1-.54.89l-.16-.1-.2.34a.18.18,0,0,1-.07,0A7.22,7.22,0,0,1,298.65,57.21Zm59.29-11.36a6.26,6.26,0,0,1,3.06-.72,6.43,6.43,0,0,1,3.1.73c.63.36,1,.8,1,1.2s-.35.83-1,1.18a7.22,7.22,0,0,1-6.16,0c-.63-.36-1-.8-1-1.2S357.32,46.2,357.94,45.85Z"/><path class="cls-18" d="M312.18,93.84l36.71-22.32a9.06,9.06,0,0,0,3,.51A8.24,8.24,0,0,0,356,71a3.47,3.47,0,0,0,2-2.94,3.55,3.55,0,0,0-2-3,8.43,8.43,0,0,0-4.12-1,8.3,8.3,0,0,0-4.08,1,3.46,3.46,0,0,0-2,2.94,3.14,3.14,0,0,0,1.08,2.29L308.11,93.94l12.62,6.92-35.34,20.58,1,1.76,38.45-22.39Zm36.63-27a6.95,6.95,0,0,1,6.16,0c.63.36,1,.8,1,1.2s-.35.82-1,1.18a7.22,7.22,0,0,1-6.16,0c-.62-.36-1-.8-1-1.2S348.2,67.24,348.81,66.88Z"/><path class="cls-19" d="M226.67,114.88l38.46-22.39L205.75,60.14l34.19-21.32-26.26-14A2.77,2.77,0,0,0,214,23.5a3.54,3.54,0,0,0-2-3,9,9,0,0,0-8.19,0,3.46,3.46,0,0,0-2,2.95,3.55,3.55,0,0,0,2,3,8.43,8.43,0,0,0,4.12,1,8.3,8.3,0,0,0,4.08-1l.11-.08L235.86,39l-34.15,21.3L261,92.55l-35.34,20.57ZM204.88,24.66c-.63-.36-1-.8-1-1.2s.35-.82,1-1.18a6.4,6.4,0,0,1,3.06-.72,6.5,6.5,0,0,1,3.11.73c.62.37,1,.8,1,1.21s-.35.82-1,1.17A7.22,7.22,0,0,1,204.88,24.66Z"/><path class="cls-20" d="M21.22,115a8.3,8.3,0,0,0,4.08,1,8.91,8.91,0,0,0,3.42-.66l52.67,30.88L68.9,153.57l47,27.84,15.38-8.75a8.67,8.67,0,0,0,3.36.65,8.4,8.4,0,0,0,4.12-1,3.55,3.55,0,0,0,2-3,3.46,3.46,0,0,0-2-2.94,8.94,8.94,0,0,0-8.2,0,3.55,3.55,0,0,0-2,3,2.94,2.94,0,0,0,.82,2l-13.48,7.66-43-25.47,12.51-7.34L30.59,114.09a3.06,3.06,0,0,0,.84-2,3.46,3.46,0,0,0-2-2.94,8.3,8.3,0,0,0-4.08-1,8.43,8.43,0,0,0-4.12,1,3.55,3.55,0,0,0-2,3A3.46,3.46,0,0,0,21.22,115Zm110.39,53.15a6.95,6.95,0,0,1,6.16,0c.61.36,1,.79,1,1.18s-.36.84-1,1.2a7.24,7.24,0,0,1-6.17,0c-.61-.36-1-.79-1-1.18S131,168.54,131.61,168.18ZM22.27,110.89a6.43,6.43,0,0,1,3.1-.73,6.29,6.29,0,0,1,3.06.72c.61.35,1,.78,1,1.17a1.35,1.35,0,0,1-.63,1h0v0l-.33.23a7.28,7.28,0,0,1-6.17,0c-.61-.36-1-.79-1-1.18S21.64,111.25,22.27,110.89Z"/><path class="cls-21" d="M63.08,121.29a9,9,0,0,0,8.08,0l44.25,27.07L97.17,159.29l17.93,10.44,5.3-3.19a8.87,8.87,0,0,0,7.94-.14,3.53,3.53,0,0,0,2-3,3.47,3.47,0,0,0-2-2.95,8.91,8.91,0,0,0-8.2,0,3.52,3.52,0,0,0-2,3,2.92,2.92,0,0,0,.57,1.71l-3.64,2.18-13.9-8.09,18.18-10.85L72.78,119.93a3,3,0,0,0,.51-1.63,3.48,3.48,0,0,0-2-2.94,8.23,8.23,0,0,0-4.07-1,8.47,8.47,0,0,0-4.13,1,3.56,3.56,0,0,0-2,3A3.47,3.47,0,0,0,63.08,121.29Zm58.1,41a6.43,6.43,0,0,1,3.1-.73,6.26,6.26,0,0,1,3.06.72c.61.35,1,.78,1,1.18s-.37.84-1,1.2a7.22,7.22,0,0,1-6.16,0c-.62-.35-1-.78-1-1.18S120.55,162.63,121.18,162.27ZM64.12,117.14a6.5,6.5,0,0,1,3.11-.73,6.29,6.29,0,0,1,3.06.72c.61.35,1,.78,1,1.17s-.36.84-1,1.21a7.25,7.25,0,0,1-6.16,0c-.61-.35-1-.78-1-1.18S63.5,117.5,64.12,117.14Z"/><path class="cls-22" d="M133.07,22.55a8.35,8.35,0,0,0,4.08,1,9.27,9.27,0,0,0,2.62-.38l34.51,19.52L143.05,60l72.75,42.79,1-1.76-69.69-41,31.3-17.38L142,22.05a3.26,3.26,0,0,0,1.32-2.48,3.48,3.48,0,0,0-2-2.95,8.91,8.91,0,0,0-8.2,0,3.54,3.54,0,0,0-2,3A3.48,3.48,0,0,0,133.07,22.55Zm1-4.15a6.43,6.43,0,0,1,3.1-.73,6.26,6.26,0,0,1,3.06.72c.62.35,1,.78,1,1.18s-.36.84-1,1.2a7.22,7.22,0,0,1-6.16,0c-.62-.35-1-.78-1-1.18S133.48,18.76,134.11,18.4Z"/><path class="cls-23" d="M54,80.71a8.3,8.3,0,0,0,4.08,1,8.94,8.94,0,0,0,3.21-.57l31,18.21-11.42,6.52,68.29,40,1-1.76L84.9,105.88l11.41-6.52L63.2,79.91a3.11,3.11,0,0,0,1-2.18,3.46,3.46,0,0,0-2-2.94,8.3,8.3,0,0,0-4.08-1,8.43,8.43,0,0,0-4.12,1,3.55,3.55,0,0,0-2,3A3.46,3.46,0,0,0,54,80.71ZM55,76.57a6.31,6.31,0,0,1,3.1-.73,6.4,6.4,0,0,1,3.06.71c.61.36,1,.79,1,1.18s-.36.84-1,1.2A7.22,7.22,0,0,1,55,79c-.61-.36-1-.79-1-1.18S54.39,76.93,55,76.57Z"/><path class="cls-6" d="M97.19,39.5a8.92,8.92,0,0,0,8.19,0l18,10.56.52-.88.5.89,13.54-7.6a9.13,9.13,0,0,0,2.87.46,8.46,8.46,0,0,0,4.12-1,3.56,3.56,0,0,0,2-3,3.46,3.46,0,0,0-2-2.94,8.94,8.94,0,0,0-8.2,0,3.55,3.55,0,0,0-2,3,3.09,3.09,0,0,0,1.11,2.3L123.9,48l-17-10a2.91,2.91,0,0,0,.46-1.52,3.48,3.48,0,0,0-2-3,8.91,8.91,0,0,0-8.2,0,3.53,3.53,0,0,0-2,3A3.47,3.47,0,0,0,97.19,39.5Zm40.57-1.72a7,7,0,0,1,6.16,0c.61.36,1,.79,1,1.18s-.37.84-1,1.2a7.22,7.22,0,0,1-6.16,0c-.62-.35-1-.78-1-1.17S137.13,38.15,137.76,37.78ZM98.23,35.35a6.43,6.43,0,0,1,3.1-.73,6.24,6.24,0,0,1,3.06.72c.62.35,1,.78,1,1.18s-.36.84-1,1.2a7.25,7.25,0,0,1-6.16,0c-.61-.35-1-.78-1-1.18S97.6,35.71,98.23,35.35Z"/><path class="cls-24" d="M349.49,205.41l-50.94-27.84a3.08,3.08,0,0,0,1.09-2.29,3.57,3.57,0,0,0-2-3,8.43,8.43,0,0,0-4.12-1,8.24,8.24,0,0,0-4.08,1,3.48,3.48,0,0,0-2,2.94,3.57,3.57,0,0,0,2,3,9,9,0,0,0,8.2,0l0,0-.51.93,52.35,28.61,35.81-20.7L416,204.17l-37.57,23.05a8.42,8.42,0,0,0-4.05-1,8.3,8.3,0,0,0-4.08,1,3.46,3.46,0,0,0-2,2.94,3.55,3.55,0,0,0,2,3,8.92,8.92,0,0,0,8.19,0,3.45,3.45,0,0,0,2-2.94,2.94,2.94,0,0,0-.49-1.59l40-24.54-34.7-19.38Zm-52.86-28.95a7.22,7.22,0,0,1-6.16,0c-.63-.37-1-.8-1-1.21s.35-.82,1-1.17a6.26,6.26,0,0,1,3.06-.72,6.43,6.43,0,0,1,3.1.73c.63.36,1,.8,1,1.2S297.25,176.1,296.63,176.46Zm81.82,53.76c0,.39-.35.82-1,1.18a6.4,6.4,0,0,1-3.06.71,6.5,6.5,0,0,1-3.11-.72c-.62-.37-1-.81-1-1.21s.35-.82,1-1.17a6.9,6.9,0,0,1,6.16,0l.1.06.47.76.22-.14A.9.9,0,0,1,378.45,230.22Z"/><path class="cls-6" d="M122,253.12a8.94,8.94,0,0,0-8.2,0,3.55,3.55,0,0,0-2,3,3.46,3.46,0,0,0,2,2.94,8.3,8.3,0,0,0,4.08,1h0a8.41,8.41,0,0,0,4-1l25,15.37a3,3,0,0,0-.69,1.87,3.47,3.47,0,0,0,2,2.94,8.27,8.27,0,0,0,4.08,1,8.43,8.43,0,0,0,4.12-1,3.55,3.55,0,0,0,2-3,3.46,3.46,0,0,0-2-2.94,8.24,8.24,0,0,0-4.08-1,8.36,8.36,0,0,0-4,1l.17-.29-25-15.36a2.82,2.82,0,0,0,.5-1.59A3.46,3.46,0,0,0,122,253.12ZM117.85,258h0a6.29,6.29,0,0,1-3.06-.72c-.61-.35-1-.78-1-1.17s.36-.84,1-1.21a7,7,0,0,1,6.16,0c.61.36,1,.79,1,1.18s-.36.84-1,1.2A6.43,6.43,0,0,1,117.85,258Zm31.39,17.11a6.45,6.45,0,0,1,3.1-.73,6.35,6.35,0,0,1,3.06.72c.62.36,1,.78,1,1.18s-.36.84-1,1.2a7.22,7.22,0,0,1-6.16,0c-.61-.35-1-.78-1-1.17S148.61,275.47,149.24,275.1Z"/><path class="cls-6" d="M43.66,164.12a8.24,8.24,0,0,0-4.08-1,8.35,8.35,0,0,0-4.12,1,3.57,3.57,0,0,0-2,3,3.47,3.47,0,0,0,2,2.94,8.27,8.27,0,0,0,4.08,1h0a8.36,8.36,0,0,0,4-1l25,15.37a3,3,0,0,0-.7,1.87,3.48,3.48,0,0,0,2,2.94,8.24,8.24,0,0,0,4.08,1,8.43,8.43,0,0,0,4.12-1,3.59,3.59,0,0,0,2-3,3.46,3.46,0,0,0-2-2.94,8.24,8.24,0,0,0-4.08-1,8.36,8.36,0,0,0-4,1l.17-.29-25-15.36a2.9,2.9,0,0,0,.5-1.59A3.47,3.47,0,0,0,43.66,164.12ZM39.52,169h0a6.26,6.26,0,0,1-3.06-.72c-.61-.35-1-.78-1-1.17s.36-.84,1-1.21a6.43,6.43,0,0,1,3.1-.72,6.35,6.35,0,0,1,3.06.71c.62.36,1,.79,1,1.18s-.36.84-1,1.2A6.43,6.43,0,0,1,39.52,169ZM70.91,186.1a6.9,6.9,0,0,1,6.16,0c.61.36,1,.78,1,1.18s-.36.84-1,1.2a7.22,7.22,0,0,1-6.16,0c-.62-.35-1-.78-1-1.17S70.28,186.47,70.91,186.1Z"/><path class="cls-6" d="M96.35,86a9,9,0,0,0,8.11,0l9,5.41a3,3,0,0,0-.7,1.86,3.48,3.48,0,0,0,2,3,8.46,8.46,0,0,0,4.08,1,8.32,8.32,0,0,0,4.12-1,3.55,3.55,0,0,0,2-3,3.48,3.48,0,0,0-2-3,8.24,8.24,0,0,0-4.08-1,8.48,8.48,0,0,0-4,1l.17-.28-9-5.4a2.87,2.87,0,0,0,.5-1.59,3.47,3.47,0,0,0-2-3,8.3,8.3,0,0,0-4.08-1,8.4,8.4,0,0,0-4.12,1,3.55,3.55,0,0,0-2,3A3.47,3.47,0,0,0,96.35,86Zm19.46,6.1a6.43,6.43,0,0,1,3.1-.73A6.26,6.26,0,0,1,122,92c.61.35,1,.78,1,1.18s-.36.83-1,1.2a6.43,6.43,0,0,1-3.1.73,6.24,6.24,0,0,1-3.06-.72c-.62-.35-1-.78-1-1.18S115.18,92.41,115.81,92.05ZM97.39,81.8a6.5,6.5,0,0,1,3.11-.73,6.29,6.29,0,0,1,3.06.72c.61.35,1,.78,1,1.18s-.36.83-1,1.2a7.22,7.22,0,0,1-6.16,0c-.61-.35-1-.78-1-1.18S96.77,82.16,97.39,81.8Z"/><path class="cls-6" d="M412.5,156.56a8.24,8.24,0,0,0,4.08-1,3.47,3.47,0,0,0,2-2.94,3.57,3.57,0,0,0-2-3,8.43,8.43,0,0,0-4.12-1,8.24,8.24,0,0,0-4.08,1,3.47,3.47,0,0,0-2,2.94,2.9,2.9,0,0,0,.5,1.59L361.18,180.4l.17.28a8.92,8.92,0,0,0-8.11,0,3.47,3.47,0,0,0-2,2.95,3.52,3.52,0,0,0,2,3,8.29,8.29,0,0,0,4.12,1,8.4,8.4,0,0,0,4.08-1,3.47,3.47,0,0,0,2-2.95,3,3,0,0,0-.7-1.86l45.72-26.23A8.36,8.36,0,0,0,412.5,156.56Zm-3.12-5.15a6.95,6.95,0,0,1,6.16,0c.63.36,1,.8,1,1.2s-.35.82-1,1.18a7.26,7.26,0,0,1-6.16,0c-.63-.36-1-.8-1-1.2S408.76,151.77,409.38,151.41Zm-48.93,33.46a7.24,7.24,0,0,1-6.17,0c-.62-.36-1-.8-1-1.2s.35-.83,1-1.18a6.29,6.29,0,0,1,3.06-.72,6.43,6.43,0,0,1,3.1.73c.63.36,1,.8,1,1.2S361.06,184.52,360.45,184.87Z"/><path class="cls-6" d="M389.18,134.45a8.24,8.24,0,0,0,4.08-1,3.48,3.48,0,0,0,2-3,3.53,3.53,0,0,0-2-3,9,9,0,0,0-8.2,0,3.48,3.48,0,0,0-2,2.95,2.92,2.92,0,0,0,.5,1.59L361,145.25l.17.28a8.48,8.48,0,0,0-4-1,8.24,8.24,0,0,0-4.08,1,3.48,3.48,0,0,0-2,2.94,3.54,3.54,0,0,0,2,3,9,9,0,0,0,8.2,0,3.48,3.48,0,0,0,2-3,3,3,0,0,0-.7-1.86l22.6-13.19A8.48,8.48,0,0,0,389.18,134.45Zm-3.12-5.15a6.26,6.26,0,0,1,3.06-.72,6.43,6.43,0,0,1,3.1.73c.63.37,1,.8,1,1.2s-.35.83-1,1.18a7.22,7.22,0,0,1-6.16,0c-.63-.36-1-.8-1-1.2S385.44,129.65,386.06,129.3Zm-25.82,20.42a7.22,7.22,0,0,1-6.16,0c-.63-.37-1-.8-1-1.21s.35-.82,1-1.17a6.24,6.24,0,0,1,3.06-.72,6.43,6.43,0,0,1,3.1.73c.63.36,1,.8,1,1.2S360.85,149.36,360.24,149.72Z"/><path class="cls-25" d="M187,133.23l1-1.76L132.68,99.19,153,86.6,106.69,59.54a3,3,0,0,0,.71-1.88,3.46,3.46,0,0,0-2-2.94,8.94,8.94,0,0,0-8.2,0,3.55,3.55,0,0,0-2,3,3.47,3.47,0,0,0,2,2.94,8.24,8.24,0,0,0,4.08,1,8.6,8.6,0,0,0,3.63-.77l44.16,25.79L128.72,99.24ZM98.21,58.87c-.61-.35-1-.78-1-1.17s.36-.84,1-1.2a6.95,6.95,0,0,1,6.16,0c.61.36,1,.79,1,1.18s-.36.84-1,1.2A7.21,7.21,0,0,1,98.21,58.87Z"/><path class="cls-6" d="M109.81,237.06a8.46,8.46,0,0,0-4.12-1,8.24,8.24,0,0,0-4.08,1,3.47,3.47,0,0,0-2,2.94,2.89,2.89,0,0,0,.53,1.65L67.38,260.12l22.43,12.24a2.86,2.86,0,0,0-.45,1.51,3.57,3.57,0,0,0,2,3,8.94,8.94,0,0,0,8.2,0,3.47,3.47,0,0,0,2-2.94,3.57,3.57,0,0,0-2-3,8.43,8.43,0,0,0-4.12-1,8.31,8.31,0,0,0-4,1L71.58,260.09l30.22-17a8.44,8.44,0,0,0,4,.92,8.3,8.3,0,0,0,4.08-1,3.46,3.46,0,0,0,2-2.94A3.56,3.56,0,0,0,109.81,237.06ZM98.53,272.71c.63.36,1,.8,1,1.2s-.35.82-1,1.18a6.95,6.95,0,0,1-6.16,0c-.63-.36-1-.8-1-1.2a.94.94,0,0,1,.21-.53h0l.06-.1a2.54,2.54,0,0,1,.69-.56,6.95,6.95,0,0,1,6.16,0Zm10.28-31.5a7.22,7.22,0,0,1-6.16,0c-.63-.36-1-.8-1-1.2s.35-.82,1-1.17a6.3,6.3,0,0,1,3.07-.72,6.37,6.37,0,0,1,3.1.73c.62.36,1,.8,1,1.2S109.42,240.85,108.81,241.21Z"/><path class="cls-26" d="M292.45,132.31l1,1.75,96.67-57.74-.24-.4a8.47,8.47,0,0,0,3.85.88,8.35,8.35,0,0,0,4.08-1,3.48,3.48,0,0,0,2-3,3.52,3.52,0,0,0-2-3,8.91,8.91,0,0,0-8.2,0,3.47,3.47,0,0,0-2,3,3,3,0,0,0,.88,2.08Zm98.2-60.66a6.26,6.26,0,0,1,3.06-.72,6.43,6.43,0,0,1,3.1.73c.63.36,1,.8,1,1.2s-.35.83-1,1.18a7.22,7.22,0,0,1-6.16,0c-.63-.36-1-.8-1-1.2S390,72,390.65,71.65Z"/><g class="cls-27"><path class="cls-28" d="M216.57,227.78a24.66,24.66,0,0,0,12.3-3l81.54-47.18c4.48-2.59,7.06-6.69,7.06-11.25,0-5-3.1-9.65-8.51-12.76l-74-42.71a30.28,30.28,0,0,0-14.94-3.79,24.67,24.67,0,0,0-12.31,3l-81.53,47.18c-4.49,2.59-7.06,6.69-7.06,11.25,0,5,3.1,9.65,8.5,12.77l74,42.7A30.29,30.29,0,0,0,216.57,227.78Z"/><path class="cls-29" d="M208.42,110.42l-79.58,46c-4.08,2.36-7,6.56-7.22,10.7-.2,4.78,2.47,9.39,7.84,12.49l72.92,42.11a29.39,29.39,0,0,0,14.56,3.66,25.93,25.93,0,0,0,8.77-1.48,21.06,21.06,0,0,0,3.18-1.48l79.41-46c4.08-2.35,7-6.54,7.2-10.67.2-4.79-2.47-9.4-7.84-12.5l-72.55-41.89a30.28,30.28,0,0,0-5.37-2.38,31.09,31.09,0,0,0-9.24-1.49A23.84,23.84,0,0,0,208.42,110.42Z"/><path class="cls-30" d="M209.09,110.75l-77.62,44.92c-3.68,2.12-7.07,6.42-7.39,10.13-.4,4.6,1.84,9.15,7.17,12.23l71.88,41.5a28.35,28.35,0,0,0,14.18,3.54,24.94,24.94,0,0,0,8.52-1.5,23.09,23.09,0,0,0,3.09-1.46l77.28-44.72c3.67-2.12,7-6.39,7.33-10.1.4-4.6-1.84-9.15-7.17-12.23L235.22,112a32.08,32.08,0,0,0-5.25-2.38,30.59,30.59,0,0,0-9-1.57A23,23,0,0,0,209.09,110.75Z"/><path class="cls-31" d="M209.76,111.08l-75.67,43.79c-3.27,1.88-7.11,6.29-7.56,9.58-.59,4.44,1.22,8.9,6.52,12l70.84,40.9a27.55,27.55,0,0,0,13.79,3.41A24.44,24.44,0,0,0,226,219.2a26.66,26.66,0,0,0,3-1.44l75.15-43.49c3.27-1.88,7-6.25,7.48-9.53.6-4.44-1.22-8.9-6.52-12l-69.72-40.26a38.05,38.05,0,0,0-5.12-2.38,30.29,30.29,0,0,0-8.82-1.64A22.4,22.4,0,0,0,209.76,111.08Z"/><path class="cls-32" d="M210.43,111.41l-73.72,42.66c-2.85,1.65-7.72,6.13-7.72,9-1.58,4.09.59,8.64,5.86,11.68l69.8,40.3a26.34,26.34,0,0,0,13.4,3.28,23.17,23.17,0,0,0,8-1.53,29.84,29.84,0,0,0,2.89-1.42l73-42.26c2.85-1.65,7.61-6.06,7.61-9,1.58-4.09-.59-8.65-5.85-11.69l-68.31-39.44a41.83,41.83,0,0,0-5-2.38,29.8,29.8,0,0,0-8.6-1.72A21.61,21.61,0,0,0,210.43,111.41Z"/><path class="cls-33" d="M211.11,111.75l-71.78,41.53c-2.44,1.41-7.88,6-7.88,8.46-2,3.87,0,8.4,5.19,11.42l68.77,39.7a25.55,25.55,0,0,0,13,3.15,22.75,22.75,0,0,0,7.77-1.55c.62-.25,2.23-1.08,2.78-1.4l70.9-41c2.45-1.41,7.76-5.91,7.76-8.39,2-3.87,0-8.4-5.2-11.42L235.55,113.6a49.94,49.94,0,0,0-4.87-2.38,29.12,29.12,0,0,0-8.4-1.8A20.75,20.75,0,0,0,211.11,111.75Z"/><path class="cls-34" d="M211.78,112.08,142,152.48c-2,1.18-8.05,5.84-8.05,7.91-2.37,3.64-.66,8.15,4.53,11.15l67.72,39.1a24.74,24.74,0,0,0,12.64,3,21.54,21.54,0,0,0,7.52-1.58c.52-.21,2.22-1.11,2.69-1.37l68.77-39.8c2-1.18,7.89-5.75,7.89-7.82,2.37-3.64.67-8.15-4.53-11.15l-65.48-37.8c-.76-.45-3.87-2.06-4.74-2.38a28.78,28.78,0,0,0-8.19-1.88A20,20,0,0,0,211.78,112.08Z"/><path class="cls-35" d="M212.45,112.41l-67.87,39.27c-1.63.94-8.21,5.7-8.21,7.36-2.77,3.41-1.29,7.9,3.87,10.88l66.68,38.49a23.64,23.64,0,0,0,12.25,2.89,20.75,20.75,0,0,0,7.27-1.59c.41-.17,2.22-1.14,2.59-1.36l66.64-38.56c1.64-.94,8-5.59,8-7.25,2.77-3.42,1.3-7.9-3.86-10.88l-64.07-37c-.61-.35-3.92-2.11-4.62-2.37a27.37,27.37,0,0,0-8-2A19.3,19.3,0,0,0,212.45,112.41Z"/><path class="cls-36" d="M213.12,112.74,147.2,150.88c-1.22.71-8.37,5.56-8.37,6.8-3.16,3.19-1.92,7.65,3.2,10.61l65.65,37.9A22.72,22.72,0,0,0,219.54,209a20,20,0,0,0,7-1.61c.31-.13,2.21-1.18,2.49-1.34l64.52-37.33c1.22-.71,8.17-5.44,8.17-6.68,3.16-3.19,1.92-7.65-3.21-10.61l-62.65-36.17c-.46-.27-4-2.17-4.49-2.38a26.92,26.92,0,0,0-7.78-2A18.63,18.63,0,0,0,213.12,112.74Z"/><path class="cls-37" d="M213.79,113.08l-64,37c-.82.47-8.54,5.41-8.54,6.24-3.56,3-2.55,7.4,2.54,10.34l64.6,37.3a21.88,21.88,0,0,0,11.48,2.63,19.08,19.08,0,0,0,6.77-1.63c.2-.09,2.21-1.21,2.39-1.32l62.39-36.1c.82-.47,8.31-5.28,8.31-6.11,3.56-3,2.55-7.4-2.54-10.34L236,115.75c-.31-.18-4-2.24-4.36-2.38a26.68,26.68,0,0,0-7.57-2.1A17.82,17.82,0,0,0,213.79,113.08Z"/><path class="cls-38" d="M214.46,113.41l-62,35.88c-.41.24-8.7,5.27-8.7,5.69-4,2.73-3.18,7.15,1.88,10.07l63.56,36.69a20.81,20.81,0,0,0,11.1,2.5,18.33,18.33,0,0,0,6.51-1.64l2.3-1.3,60.26-34.87c.41-.24,8.45-5.12,8.45-5.54,3.95-2.74,3.17-7.15-1.88-10.07L236.1,116.28c-.15-.09-4.06-2.3-4.24-2.37a25.85,25.85,0,0,0-7.36-2.18A17.25,17.25,0,0,0,214.46,113.41Z"/><path class="cls-39" d="M226.92,200.22l68.92-39.88c4.35-2.51,3.81-6.9-1.22-9.8L232.1,114.45c-5-2.9-12.62-3.22-17-.71l-68.92,39.88c-4.35,2.52-3.81,6.9,1.21,9.8L210,199.52C215,202.42,222.57,202.74,226.92,200.22Z"/></g><path class="cls-40" d="M313.4,141.27h-1.87a13.53,13.53,0,0,0-3.95-3.32l-72.92-42.1c-8.63-5-23.7-4.36-33.67,1.4l-67.43,38.93a20,20,0,0,0-6,5.09h-2.22v5.81h.06c.28,2.89,2.16,5.62,5.77,7.7l72.91,42.1c8.63,5,23.7,4.36,33.67-1.4l67.43-38.93c4.73-2.73,7.43-6.12,8.07-9.47h.17Z"/><path class="cls-41" d="M204.06,192.45l-72.91-42.1c-8.63-5-7.55-13.68,2.41-19.44L201,92c10-5.75,25-6.37,33.67-1.39l72.92,42.1c8.62,5,7.54,13.68-2.42,19.43l-67.43,38.93C227.76,196.81,212.69,197.43,204.06,192.45Z"/><path class="cls-42" d="M311.05,131.22h-1.83a13.17,13.17,0,0,0-3.86-3.24L234.15,86.87C225.72,82,211,82.61,201.27,88.23l-65.85,38a19.42,19.42,0,0,0-5.88,5h-2.17v10.16h.06c.27,2.83,2.12,5.49,5.63,7.53L204.27,190c8.43,4.86,23.15,4.25,32.88-1.37l65.85-38c4.62-2.66,7.26-6,7.88-9.25h.17Z"/><path class="cls-43" d="M313.25,124.46h-1.87a13.42,13.42,0,0,0-4-3.31l-72.91-42.1c-8.63-5-23.7-4.36-33.67,1.39l-67.43,38.93a20,20,0,0,0-6,5.09h-2.22v12.22h.06c.28,2.89,2.16,5.62,5.77,7.7l72.91,42.1c8.63,5,23.7,4.35,33.67-1.4L305,146.15c4.73-2.73,7.43-6.13,8.07-9.47h.17Z"/><path class="cls-44" d="M203.91,175.65,131,133.55c-8.63-5-7.55-13.68,2.41-19.44l67.43-38.93c10-5.75,25-6.38,33.67-1.39l72.92,42.09c8.62,5,7.54,13.69-2.42,19.44l-67.43,38.93C227.61,180,212.54,180.63,203.91,175.65Z"/><path class="cls-45" d="M207.36,164.16l-56.47-32.6c-6.69-3.86-5.85-10.6,1.87-15.06L205,86.35c7.71-4.46,19.39-4.94,26.07-1.08l56.48,32.61c6.68,3.85,5.84,10.59-1.88,15.05l-52.22,30.15C225.72,167.54,214,168,207.36,164.16Z"/><path class="cls-46" d="M305,133.82l-67.43,38.93c-10,5.75-25,6.37-33.67,1.39L131,132.05c-3.47-2-5.34-4.61-5.73-7.37-.53,3.58,1.33,7.09,5.73,9.62l72.91,42.1c8.63,5,23.7,4.36,33.67-1.4L305,136.07c6-3.44,8.72-7.94,8.14-12.07C312.64,127.46,309.9,131,305,133.82Z"/><g class="cls-47"><polygon class="cls-48" points="218.67 87.44 221.6 85.75 218.69 84.07 215.77 85.76 218.67 87.44"/><polygon class="cls-49" points="213.18 90.61 216.1 88.92 213.2 87.25 210.27 88.93 213.18 90.61"/><polygon class="cls-50" points="207.69 93.78 210.61 92.09 207.71 90.42 204.78 92.1 207.69 93.78"/><polygon class="cls-50" points="202.19 96.95 205.12 95.27 202.21 93.59 199.29 95.28 202.19 96.95"/><polygon class="cls-49" points="196.7 100.12 199.63 98.44 196.72 96.76 193.8 98.45 196.7 100.12"/><polygon class="cls-50" points="191.21 103.3 194.13 101.61 191.23 99.93 188.3 101.62 191.21 103.3"/><polygon class="cls-50" points="185.72 106.47 188.64 104.78 185.74 103.1 182.81 104.79 185.72 106.47"/><polygon class="cls-49" points="180.22 109.64 183.15 107.95 180.24 106.27 177.32 107.96 180.22 109.64"/><polygon class="cls-50" points="174.73 112.81 177.66 111.12 174.75 109.44 171.83 111.13 174.73 112.81"/><polygon class="cls-50" points="169.24 115.98 172.16 114.29 169.26 112.61 166.33 114.3 169.24 115.98"/><polygon class="cls-49" points="163.75 119.15 166.67 117.46 163.76 115.78 160.84 117.47 163.75 119.15"/><polygon class="cls-49" points="158.25 122.32 161.18 120.63 158.27 118.96 155.35 120.64 158.25 122.32"/><polygon class="cls-50" points="152.76 125.49 155.69 123.81 152.78 122.13 149.86 123.82 152.76 125.49"/><polygon class="cls-49" points="223.86 90.44 226.79 88.75 223.88 87.07 220.96 88.76 223.86 90.44"/><polygon class="cls-49" points="218.37 93.61 221.29 91.92 218.39 90.24 215.47 91.93 218.37 93.61"/><polygon class="cls-49" points="212.88 96.78 215.8 95.09 212.9 93.41 209.97 95.1 212.88 96.78"/><polygon class="cls-49" points="207.39 99.95 210.31 98.26 207.4 96.58 204.48 98.27 207.39 99.95"/><polygon class="cls-50" points="201.89 103.12 204.82 101.43 201.91 99.76 198.99 101.44 201.89 103.12"/><polygon class="cls-49" points="196.4 106.29 199.32 104.6 196.42 102.93 193.5 104.61 196.4 106.29"/><polygon class="cls-48" points="190.91 109.46 193.83 107.78 190.93 106.1 188 107.79 190.91 109.46"/><polygon class="cls-50" points="185.41 112.64 188.34 110.95 185.43 109.27 182.51 110.96 185.41 112.64"/><polygon class="cls-49" points="179.92 115.81 182.85 114.12 179.94 112.44 177.02 114.13 179.92 115.81"/><polygon class="cls-50" points="174.43 118.98 177.35 117.29 174.45 115.61 171.53 117.3 174.43 118.98"/><polygon class="cls-49" points="168.94 122.15 171.86 120.46 168.96 118.78 166.03 120.47 168.94 122.15"/><polygon class="cls-49" points="163.44 125.32 166.37 123.63 163.46 121.95 160.54 123.64 163.44 125.32"/><polygon class="cls-49" points="157.95 128.49 160.88 126.8 157.97 125.13 155.05 126.81 157.95 128.49"/><polygon class="cls-50" points="229.06 93.43 231.98 91.75 229.07 90.07 226.15 91.76 229.06 93.43"/><polygon class="cls-49" points="223.56 96.61 226.49 94.92 223.58 93.24 220.66 94.93 223.56 96.61"/><polygon class="cls-48" points="218.07 99.78 220.99 98.09 218.09 96.41 215.16 98.1 218.07 99.78"/><polygon class="cls-48" points="212.58 102.95 215.5 101.26 212.59 99.58 209.67 101.27 212.58 102.95"/><polygon class="cls-48" points="207.08 106.12 210.01 104.43 207.1 102.75 204.18 104.44 207.08 106.12"/><polygon class="cls-49" points="201.59 109.29 204.52 107.6 201.61 105.92 198.69 107.61 201.59 109.29"/><polygon class="cls-48" points="196.1 112.46 199.02 110.77 196.12 109.09 193.19 110.78 196.1 112.46"/><polygon class="cls-48" points="190.61 115.63 193.53 113.94 190.63 112.27 187.7 113.95 190.61 115.63"/><polygon class="cls-48" points="185.11 118.8 188.04 117.11 185.13 115.44 182.21 117.13 185.11 118.8"/><polygon class="cls-48" points="179.62 121.97 182.54 120.29 179.64 118.61 176.72 120.3 179.62 121.97"/><polygon class="cls-49" points="174.13 125.14 177.05 123.46 174.15 121.78 171.22 123.47 174.13 125.14"/><polygon class="cls-49" points="168.64 128.32 171.56 126.63 168.66 124.95 165.73 126.64 168.64 128.32"/><polygon class="cls-50" points="163.14 131.49 166.07 129.8 163.16 128.12 160.24 129.81 163.14 131.49"/><polygon class="cls-49" points="234.25 96.43 237.17 94.74 234.26 93.06 231.34 94.75 234.25 96.43"/><polygon class="cls-48" points="228.75 99.6 231.68 97.91 228.77 96.24 225.85 97.92 228.75 99.6"/><polygon class="cls-51" points="223.26 102.77 226.19 101.08 223.28 99.41 220.35 101.1 223.26 102.77"/><polygon class="cls-52" points="217.77 105.94 220.69 104.26 217.79 102.58 214.86 104.27 217.77 105.94"/><polygon class="cls-48" points="212.28 109.12 215.2 107.43 212.29 105.75 209.37 107.44 212.28 109.12"/><polygon class="cls-48" points="206.78 112.29 209.71 110.6 206.8 108.92 203.88 110.61 206.78 112.29"/><polygon class="cls-53" points="201.29 115.46 204.21 113.77 201.31 112.09 198.38 113.78 201.29 115.46"/><polygon class="cls-52" points="195.8 118.63 198.72 116.94 195.82 115.26 192.89 116.95 195.8 118.63"/><polygon class="cls-51" points="190.31 121.8 193.23 120.11 190.32 118.44 187.4 120.12 190.31 121.8"/><polygon class="cls-53" points="184.81 124.97 187.74 123.28 184.83 121.61 181.91 123.29 184.81 124.97"/><polygon class="cls-48" points="179.32 128.14 182.24 126.45 179.34 124.78 176.41 126.47 179.32 128.14"/><polygon class="cls-50" points="173.83 131.31 176.75 129.63 173.85 127.95 170.92 129.64 173.83 131.31"/><polygon class="cls-50" points="168.34 134.49 171.26 132.8 168.35 131.12 165.43 132.81 168.34 134.49"/><polygon class="cls-50" points="239.44 99.43 242.36 97.74 239.46 96.06 236.53 97.75 239.44 99.43"/><polygon class="cls-48" points="233.94 102.6 236.87 100.91 233.96 99.23 231.04 100.92 233.94 102.6"/><polygon class="cls-52" points="228.45 105.77 231.38 104.08 228.47 102.41 225.55 104.09 228.45 105.77"/><polygon class="cls-52" points="222.96 108.94 225.88 107.25 222.98 105.58 220.05 107.26 222.96 108.94"/><polygon class="cls-53" points="217.47 112.11 220.39 110.42 217.49 108.75 214.56 110.44 217.47 112.11"/><polygon class="cls-48" points="211.97 115.28 214.9 113.6 211.99 111.92 209.07 113.61 211.97 115.28"/><polygon class="cls-53" points="206.48 118.45 209.41 116.77 206.5 115.09 203.58 116.78 206.48 118.45"/><polygon class="cls-52" points="200.99 121.63 203.91 119.94 201.01 118.26 198.08 119.95 200.99 121.63"/><polygon class="cls-52" points="195.5 124.8 198.42 123.11 195.51 121.43 192.59 123.12 195.5 124.8"/><polygon class="cls-53" points="190 127.97 192.93 126.28 190.02 124.6 187.1 126.29 190 127.97"/><polygon class="cls-49" points="184.51 131.14 187.44 129.45 184.53 127.77 181.61 129.46 184.51 131.14"/><polygon class="cls-48" points="179.02 134.31 181.94 132.62 179.04 130.94 176.11 132.63 179.02 134.31"/><polygon class="cls-49" points="173.53 137.48 176.45 135.79 173.54 134.12 170.62 135.8 173.53 137.48"/><polygon class="cls-49" points="244.63 102.43 247.55 100.74 244.65 99.06 241.72 100.75 244.63 102.43"/><polygon class="cls-48" points="239.14 105.6 242.06 103.91 239.15 102.23 236.23 103.92 239.14 105.6"/><polygon class="cls-52" points="233.64 108.77 236.57 107.08 233.66 105.4 230.74 107.09 233.64 108.77"/><polygon class="cls-51" points="228.15 111.94 231.07 110.25 228.17 108.57 225.25 110.26 228.15 111.94"/><polygon class="cls-53" points="222.66 115.11 225.58 113.42 222.68 111.74 219.75 113.43 222.66 115.11"/><polygon class="cls-53" points="217.17 118.28 220.09 116.59 217.18 114.92 214.26 116.6 217.17 118.28"/><polygon class="cls-51" points="211.67 121.45 214.6 119.76 211.69 118.09 208.77 119.78 211.67 121.45"/><polygon class="cls-52" points="206.18 124.62 209.1 122.94 206.2 121.26 203.28 122.95 206.18 124.62"/><polygon class="cls-52" points="200.69 127.8 203.61 126.11 200.71 124.43 197.78 126.12 200.69 127.8"/><polygon class="cls-51" points="195.19 130.97 198.12 129.28 195.21 127.6 192.29 129.29 195.19 130.97"/><polygon class="cls-53" points="189.7 134.14 192.63 132.45 189.72 130.77 186.8 132.46 189.7 134.14"/><polygon class="cls-48" points="184.21 137.31 187.13 135.62 184.23 133.94 181.3 135.63 184.21 137.31"/><polygon class="cls-49" points="178.72 140.48 181.64 138.79 178.74 137.11 175.81 138.8 178.72 140.48"/><polygon class="cls-50" points="249.82 105.42 252.74 103.73 249.84 102.06 246.91 103.75 249.82 105.42"/><polygon class="cls-48" points="244.33 108.59 247.25 106.91 244.34 105.23 241.42 106.92 244.33 108.59"/><polygon class="cls-52" points="238.84 111.77 241.76 110.08 238.85 108.4 235.93 110.09 238.84 111.77"/><polygon class="cls-52" points="233.34 114.94 236.27 113.25 233.36 111.57 230.44 113.26 233.34 114.94"/><polygon class="cls-53" points="227.85 118.11 230.77 116.42 227.87 114.74 224.94 116.43 227.85 118.11"/><polygon class="cls-53" points="222.36 121.28 225.28 119.59 222.38 117.91 219.45 119.6 222.36 121.28"/><polygon class="cls-52" points="216.86 124.45 219.79 122.76 216.88 121.08 213.96 122.77 216.86 124.45"/><polygon class="cls-53" points="211.37 127.62 214.3 125.93 211.39 124.25 208.47 125.94 211.37 127.62"/><polygon class="cls-53" points="205.88 130.79 208.8 129.1 205.9 127.43 202.97 129.11 205.88 130.79"/><polygon class="cls-52" points="200.39 133.96 203.31 132.28 200.41 130.6 197.48 132.28 200.39 133.96"/><polygon class="cls-53" points="194.89 137.13 197.82 135.45 194.91 133.77 191.99 135.46 194.89 137.13"/><polygon class="cls-50" points="189.4 140.31 192.32 138.62 189.42 136.94 186.5 138.63 189.4 140.31"/><polygon class="cls-49" points="183.91 143.48 186.83 141.79 183.93 140.11 181 141.8 183.91 143.48"/><polygon class="cls-50" points="255.01 108.42 257.94 106.73 255.03 105.05 252.1 106.74 255.01 108.42"/><polygon class="cls-48" points="249.52 111.59 252.44 109.9 249.54 108.22 246.61 109.91 249.52 111.59"/><polygon class="cls-51" points="244.03 114.76 246.95 113.07 244.04 111.4 241.12 113.08 244.03 114.76"/><polygon class="cls-52" points="238.53 117.93 241.46 116.25 238.55 114.57 235.63 116.26 238.53 117.93"/><polygon class="cls-53" points="233.04 121.1 235.97 119.42 233.06 117.74 230.13 119.43 233.04 121.1"/><polygon class="cls-53" points="227.55 124.28 230.47 122.59 227.57 120.91 224.64 122.6 227.55 124.28"/><polygon class="cls-52" points="222.06 127.45 224.98 125.76 222.07 124.08 219.15 125.77 222.06 127.45"/><polygon class="cls-52" points="216.56 130.62 219.49 128.93 216.58 127.25 213.66 128.94 216.56 130.62"/><polygon class="cls-52" points="211.07 133.79 213.99 132.1 211.09 130.42 208.16 132.11 211.07 133.79"/><polygon class="cls-52" points="205.58 136.96 208.5 135.27 205.6 133.59 202.67 135.28 205.58 136.96"/><polygon class="cls-53" points="200.09 140.13 203.01 138.44 200.1 136.77 197.18 138.45 200.09 140.13"/><polygon class="cls-49" points="194.59 143.3 197.52 141.61 194.61 139.94 191.69 141.63 194.59 143.3"/><polygon class="cls-50" points="189.1 146.47 192.02 144.78 189.12 143.11 186.19 144.8 189.1 146.47"/><polygon class="cls-49" points="260.2 111.42 263.13 109.73 260.22 108.05 257.3 109.74 260.2 111.42"/><polygon class="cls-48" points="254.71 114.59 257.63 112.9 254.73 111.22 251.8 112.91 254.71 114.59"/><polygon class="cls-52" points="249.22 117.76 252.14 116.07 249.24 114.39 246.31 116.08 249.22 117.76"/><polygon class="cls-51" points="243.72 120.93 246.65 119.24 243.74 117.56 240.82 119.25 243.72 120.93"/><polygon class="cls-53" points="238.23 124.1 241.16 122.41 238.25 120.74 235.33 122.42 238.23 124.1"/><polygon class="cls-51" points="232.74 127.27 235.66 125.58 232.76 123.91 229.83 125.59 232.74 127.27"/><polygon class="cls-52" points="227.25 130.44 230.17 128.76 227.26 127.08 224.34 128.77 227.25 130.44"/><polygon class="cls-52" points="221.75 133.62 224.68 131.93 221.77 130.25 218.85 131.94 221.75 133.62"/><polygon class="cls-52" points="216.26 136.79 219.19 135.1 216.28 133.42 213.36 135.11 216.26 136.79"/><polygon class="cls-52" points="210.77 139.96 213.69 138.27 210.79 136.59 207.86 138.28 210.77 139.96"/><polygon class="cls-51" points="205.28 143.13 208.2 141.44 205.29 139.76 202.37 141.45 205.28 143.13"/><polygon class="cls-48" points="199.78 146.3 202.71 144.61 199.8 142.93 196.88 144.62 199.78 146.3"/><polygon class="cls-50" points="194.29 149.47 197.22 147.78 194.31 146.1 191.39 147.79 194.29 149.47"/><polygon class="cls-49" points="265.39 114.41 268.32 112.73 265.41 111.05 262.49 112.74 265.39 114.41"/><polygon class="cls-48" points="259.9 117.58 262.82 115.9 259.92 114.22 257 115.91 259.9 117.58"/><polygon class="cls-52" points="254.41 120.76 257.33 119.07 254.43 117.39 251.5 119.08 254.41 120.76"/><polygon class="cls-52" points="248.92 123.93 251.84 122.24 248.93 120.56 246.01 122.25 248.92 123.93"/><polygon class="cls-53" points="243.42 127.1 246.35 125.41 243.44 123.73 240.52 125.42 243.42 127.1"/><polygon class="cls-51" points="237.93 130.27 240.85 128.58 237.95 126.9 235.03 128.59 237.93 130.27"/><polygon class="cls-52" points="232.44 133.44 235.36 131.75 232.46 130.07 229.53 131.76 232.44 133.44"/><polygon class="cls-53" points="226.94 136.61 229.87 134.92 226.96 133.25 224.04 134.94 226.94 136.61"/><polygon class="cls-53" points="221.45 139.78 224.38 138.09 221.47 136.42 218.55 138.11 221.45 139.78"/><polygon class="cls-52" points="215.96 142.95 218.88 141.27 215.98 139.59 213.06 141.28 215.96 142.95"/><polygon class="cls-52" points="210.47 146.13 213.39 144.44 210.49 142.76 207.56 144.45 210.47 146.13"/><polygon class="cls-49" points="204.97 149.3 207.9 147.61 204.99 145.93 202.07 147.62 204.97 149.3"/><polygon class="cls-50" points="199.48 152.47 202.41 150.78 199.5 149.1 196.58 150.79 199.48 152.47"/><polygon class="cls-50" points="270.58 117.41 273.51 115.72 270.6 114.05 267.68 115.73 270.58 117.41"/><polygon class="cls-48" points="265.09 120.58 268.02 118.89 265.11 117.22 262.19 118.91 265.09 120.58"/><polygon class="cls-54" points="259.6 123.75 262.52 122.07 259.62 120.39 256.69 122.08 259.6 123.75"/><polygon class="cls-52" points="254.11 126.92 257.03 125.24 254.13 123.56 251.2 125.25 254.11 126.92"/><polygon class="cls-53" points="248.61 130.1 251.54 128.41 248.63 126.73 245.71 128.42 248.61 130.1"/><polygon class="cls-52" points="243.12 133.27 246.05 131.58 243.14 129.9 240.22 131.59 243.12 133.27"/><polygon class="cls-52" points="237.63 136.44 240.55 134.75 237.65 133.07 234.72 134.76 237.63 136.44"/><polygon class="cls-53" points="232.14 139.61 235.06 137.92 232.16 136.24 229.23 137.93 232.14 139.61"/><polygon class="cls-53" points="226.64 142.78 229.57 141.09 226.66 139.41 223.74 141.1 226.64 142.78"/><polygon class="cls-51" points="221.15 145.95 224.07 144.26 221.17 142.59 218.25 144.27 221.15 145.95"/><polygon class="cls-52" points="215.66 149.12 218.58 147.44 215.68 145.76 212.75 147.44 215.66 149.12"/><polygon class="cls-48" points="210.17 152.29 213.09 150.61 210.19 148.93 207.26 150.62 210.17 152.29"/><polygon class="cls-50" points="204.67 155.47 207.6 153.78 204.69 152.1 201.77 153.79 204.67 155.47"/><polygon class="cls-50" points="275.78 120.41 278.7 118.72 275.79 117.04 272.87 118.73 275.78 120.41"/><polygon class="cls-49" points="270.28 123.58 273.21 121.89 270.3 120.21 267.38 121.9 270.28 123.58"/><polygon class="cls-48" points="264.79 126.75 267.71 125.06 264.81 123.39 261.88 125.07 264.79 126.75"/><polygon class="cls-48" points="259.3 129.92 262.22 128.23 259.32 126.56 256.39 128.24 259.3 129.92"/><polygon class="cls-48" points="253.81 133.09 256.73 131.41 253.82 129.73 250.9 131.42 253.81 133.09"/><polygon class="cls-48" points="248.31 136.26 251.24 134.58 248.33 132.9 245.41 134.59 248.31 136.26"/><polygon class="cls-48" points="242.82 139.44 245.74 137.75 242.84 136.07 239.91 137.76 242.82 139.44"/><polygon class="cls-48" points="237.33 142.61 240.25 140.92 237.35 139.24 234.42 140.93 237.33 142.61"/><polygon class="cls-48" points="231.84 145.78 234.76 144.09 231.85 142.41 228.93 144.1 231.84 145.78"/><polygon class="cls-53" points="226.34 148.95 229.27 147.26 226.36 145.58 223.44 147.27 226.34 148.95"/><polygon class="cls-48" points="220.85 152.12 223.77 150.43 220.87 148.75 217.94 150.44 220.85 152.12"/><polygon class="cls-49" points="215.36 155.29 218.28 153.6 215.38 151.93 212.45 153.61 215.36 155.29"/><polygon class="cls-49" points="209.87 158.46 212.79 156.77 209.88 155.1 206.96 156.78 209.87 158.46"/><polygon class="cls-48" points="280.97 123.41 283.89 121.72 280.99 120.04 278.06 121.73 280.97 123.41"/><polygon class="cls-50" points="275.48 126.58 278.4 124.89 275.49 123.21 272.57 124.9 275.48 126.58"/><polygon class="cls-50" points="269.98 129.75 272.91 128.06 270 126.38 267.08 128.07 269.98 129.75"/><polygon class="cls-49" points="264.49 132.92 267.41 131.23 264.51 129.55 261.58 131.24 264.49 132.92"/><polygon class="cls-49" points="259 136.09 261.92 134.4 259.01 132.72 256.09 134.41 259 136.09"/><polygon class="cls-50" points="253.5 139.26 256.43 137.57 253.52 135.9 250.6 137.58 253.5 139.26"/><polygon class="cls-50" points="248.01 142.43 250.94 140.74 248.03 139.07 245.11 140.75 248.01 142.43"/><polygon class="cls-50" points="242.52 145.6 245.44 143.92 242.54 142.24 239.61 143.93 242.52 145.6"/><polygon class="cls-50" points="237.03 148.78 239.95 147.09 237.04 145.41 234.12 147.1 237.03 148.78"/><polygon class="cls-49" points="231.53 151.95 234.46 150.26 231.55 148.58 228.63 150.27 231.53 151.95"/><polygon class="cls-50" points="226.04 155.12 228.97 153.43 226.06 151.75 223.14 153.44 226.04 155.12"/><polygon class="cls-49" points="220.55 158.29 223.47 156.6 220.57 154.92 217.64 156.61 220.55 158.29"/><polygon class="cls-49" points="215.06 161.46 217.98 159.77 215.07 158.09 212.15 159.78 215.06 161.46"/><polygon class="cls-48" points="286.16 126.4 289.08 124.72 286.18 123.04 283.25 124.72 286.16 126.4"/><polygon class="cls-50" points="280.67 129.57 283.59 127.89 280.68 126.21 277.76 127.9 280.67 129.57"/><polygon class="cls-49" points="275.17 132.75 278.1 131.06 275.19 129.38 272.27 131.07 275.17 132.75"/><polygon class="cls-49" points="269.68 135.92 272.61 134.23 269.7 132.55 266.77 134.24 269.68 135.92"/><polygon class="cls-50" points="264.19 139.09 267.11 137.4 264.21 135.72 261.28 137.41 264.19 139.09"/><polygon class="cls-50" points="258.7 142.26 261.62 140.57 258.71 138.89 255.79 140.58 258.7 142.26"/><polygon class="cls-50" points="253.2 145.43 256.13 143.74 253.22 142.06 250.3 143.75 253.2 145.43"/><polygon class="cls-49" points="247.71 148.6 250.63 146.91 247.73 145.24 244.81 146.92 247.71 148.6"/><polygon class="cls-49" points="242.22 151.77 245.14 150.08 242.24 148.41 239.31 150.09 242.22 151.77"/><polygon class="cls-49" points="236.72 154.94 239.65 153.25 236.74 151.58 233.82 153.26 236.72 154.94"/><polygon class="cls-50" points="231.23 158.11 234.16 156.43 231.25 154.75 228.33 156.44 231.23 158.11"/><polygon class="cls-49" points="225.74 161.28 228.66 159.6 225.76 157.92 222.84 159.61 225.74 161.28"/><polygon class="cls-48" points="220.25 164.46 223.17 162.77 220.27 161.09 217.34 162.78 220.25 164.46"/></g><path class="cls-55" d="M300.81,150l5.43-3.2,8.76,5.3a1.73,1.73,0,0,1,.79,1.87l-1.06,9.55-3.3-6.69a8.37,8.37,0,0,0-2.32-2Z"/><path class="cls-56" d="M311.85,156.23a8.37,8.37,0,0,0-2.32-2l-8-4.68-.69.4,8.3,4.84a8.37,8.37,0,0,1,2.32,2l3.3,6.69,0-.18Z"/><path class="cls-57" d="M290.36,156l5.43-3.2,8.76,5.3a1.73,1.73,0,0,1,.79,1.87l-1.06,9.55L301,162.83a8.39,8.39,0,0,0-2.33-2Z"/><path class="cls-58" d="M301.41,162.27a8.59,8.59,0,0,0-2.33-2l-8-4.67-.69.4,8.3,4.84a8.39,8.39,0,0,1,2.33,2l3.29,6.69.05-.18Z"/><path class="cls-59" d="M279.91,162l5.44-3.2,8.76,5.3a1.72,1.72,0,0,1,.79,1.87l-1.07,9.55-3.29-6.69a8.59,8.59,0,0,0-2.33-2Z"/><path class="cls-60" d="M291,168.3a8.73,8.73,0,0,0-2.33-2l-8-4.68-.69.41,8.3,4.83a8.59,8.59,0,0,1,2.33,2l3.29,6.69.05-.19Z"/><path class="cls-61" d="M269.46,168.08l5.44-3.2,8.76,5.29a1.74,1.74,0,0,1,.79,1.88l-1.06,9.54-3.3-6.69a8.56,8.56,0,0,0-2.33-2Z"/><path class="cls-62" d="M280.51,174.34a8.66,8.66,0,0,0-2.32-2l-8-4.68-.7.41,8.3,4.83a8.56,8.56,0,0,1,2.33,2l3.3,6.69,0-.18Z"/><path class="cls-63" d="M259,174.11l5.44-3.2,8.76,5.3a1.73,1.73,0,0,1,.79,1.87l-1.06,9.55-3.3-6.69a8.66,8.66,0,0,0-2.32-2Z"/><path class="cls-64" d="M270.06,180.38a8.34,8.34,0,0,0-2.32-2l-8-4.68-.7.4,8.31,4.84a8.66,8.66,0,0,1,2.32,2l3.3,6.69,0-.18Z"/><path class="cls-65" d="M248.57,180.15,254,177l8.76,5.3a1.73,1.73,0,0,1,.79,1.87l-1.06,9.55-3.3-6.69a8.34,8.34,0,0,0-2.32-2Z"/><path class="cls-66" d="M259.61,186.42a8.4,8.4,0,0,0-2.32-2l-8-4.67-.69.4,8.3,4.84a8.34,8.34,0,0,1,2.32,2l3.3,6.69,0-.18Z"/><path class="cls-67" d="M238.07,186.19l5.43-3.2,8.76,5.3a1.72,1.72,0,0,1,.79,1.87L252,199.71,248.7,193a8.59,8.59,0,0,0-2.33-2Z"/><path class="cls-68" d="M249.12,192.45a8.56,8.56,0,0,0-2.33-2l-8-4.68-.69.41,8.3,4.83a8.59,8.59,0,0,1,2.33,2l3.29,6.69,0-.19Z"/><path class="cls-69" d="M227.62,192.22l5.44-3.19,8.76,5.29a1.73,1.73,0,0,1,.79,1.87l-1.07,9.55-3.29-6.69a8.56,8.56,0,0,0-2.33-2Z"/><path class="cls-70" d="M238.67,198.49a8.56,8.56,0,0,0-2.33-2l-8-4.68-.69.4,8.3,4.84a8.56,8.56,0,0,1,2.33,2l3.29,6.69.05-.18Z"/><path class="cls-71" d="M138,150l-5.43-3.2-8.76,5.3a1.73,1.73,0,0,0-.79,1.87l1.06,9.55,3.3-6.69a8.34,8.34,0,0,1,2.32-2Z"/><path class="cls-72" d="M126.93,156.23a8.55,8.55,0,0,1,2.32-2l8-4.67.69.4-8.3,4.84a8.34,8.34,0,0,0-2.32,2l-3.3,6.69,0-.19Z"/><path class="cls-73" d="M148.42,156,143,152.8l-8.75,5.3a1.72,1.72,0,0,0-.79,1.87l1.06,9.54,3.29-6.69a8.56,8.56,0,0,1,2.33-2Z"/><path class="cls-74" d="M137.37,162.26a8.56,8.56,0,0,1,2.33-2l8-4.68.7.41-8.3,4.83a8.56,8.56,0,0,0-2.33,2l-3.29,6.69-.05-.18Z"/><path class="cls-75" d="M158.86,162l-5.43-3.2-8.76,5.3a1.73,1.73,0,0,0-.79,1.87l1.06,9.55,3.3-6.69a8.34,8.34,0,0,1,2.32-2Z"/><path class="cls-76" d="M147.82,168.3a8.34,8.34,0,0,1,2.32-2l8-4.68.69.4-8.3,4.84a8.34,8.34,0,0,0-2.32,2l-3.3,6.69,0-.19Z"/><path class="cls-77" d="M169.31,168.07l-5.44-3.2-8.75,5.3a1.72,1.72,0,0,0-.79,1.87l1.06,9.54,3.29-6.69a8.73,8.73,0,0,1,2.33-2Z"/><path class="cls-78" d="M158.26,174.33a8.56,8.56,0,0,1,2.33-2l8-4.68.7.41L161,172.9a8.73,8.73,0,0,0-2.33,2l-3.29,6.69,0-.18Z"/><path class="cls-79" d="M179.75,174.1l-5.43-3.19-8.76,5.29a1.73,1.73,0,0,0-.79,1.87l1.06,9.55,3.3-6.69a8.51,8.51,0,0,1,2.32-2Z"/><path class="cls-80" d="M168.71,180.37a8.21,8.21,0,0,1,2.32-2l8-4.68.69.4-8.3,4.84a8.51,8.51,0,0,0-2.32,2l-3.3,6.69,0-.19Z"/><path class="cls-81" d="M190.2,180.14l-5.44-3.2-8.75,5.3a1.74,1.74,0,0,0-.8,1.87l1.07,9.54,3.29-6.68a8.59,8.59,0,0,1,2.33-2Z"/><path class="cls-82" d="M179.15,186.4a8.56,8.56,0,0,1,2.33-2l8-4.67.7.4L181.9,185a8.59,8.59,0,0,0-2.33,2l-3.29,6.68-.05-.18Z"/><path class="cls-83" d="M200.57,186.17,195.13,183l-8.75,5.29a1.73,1.73,0,0,0-.79,1.87l1.06,9.55,3.29-6.69a8.56,8.56,0,0,1,2.33-2Z"/><path class="cls-84" d="M189.52,192.44a8.39,8.39,0,0,1,2.33-2l8-4.68.7.4-8.3,4.84a8.56,8.56,0,0,0-2.33,2l-3.29,6.69-.05-.18Z"/><path class="cls-85" d="M211,192.21l-5.43-3.2-8.76,5.3a1.72,1.72,0,0,0-.79,1.87l1.06,9.54,3.3-6.68a8.55,8.55,0,0,1,2.32-2Z"/><path class="cls-86" d="M200,198.47a8.37,8.37,0,0,1,2.32-2l8-4.67.69.4-8.3,4.83a8.55,8.55,0,0,0-2.32,2l-3.3,6.68,0-.18Z"/></g></g></g></svg>