<?xml version="1.0" encoding="utf-8"?>
<!-- Generator: Adobe Illustrator 16.0.0, SVG Export Plug-In . SVG Version: 6.00 Build 0)  -->
<!DOCTYPE svg PUBLIC "-//W3C//DTD SVG 1.1//EN" "http://www.w3.org/Graphics/SVG/1.1/DTD/svg11.dtd">
<svg version="1.1" id="Layer_1" xmlns="http://www.w3.org/2000/svg" xmlns:xlink="http://www.w3.org/1999/xlink" x="0px" y="0px"
	 width="653.064px" height="218px" viewBox="0 0 653.064 218" enable-background="new 0 0 653.064 218" xml:space="preserve">
<g>
	<defs>
		<rect id="SVGID_1_" x="-104" y="-158.929" width="850.394" height="566.929"/>
	</defs>
	<clipPath id="SVGID_2_">
		<use xlink:href="#SVGID_1_"  overflow="visible"/>
	</clipPath>
	<path clip-path="url(#SVGID_2_)" fill="#FFFFFF" d="M653.69,107.727c0,1.265-0.209,2.401-0.626,3.404
		c-0.417,1.006-0.975,1.854-1.674,2.546c-0.7,0.691-1.511,1.22-2.434,1.586c-0.924,0.363-1.891,0.546-2.902,0.546
		c-1.013,0-1.98-0.183-2.903-0.546c-0.922-0.366-1.733-0.895-2.433-1.586c-0.7-0.692-1.258-1.54-1.675-2.546
		c-0.416-1.003-0.625-2.139-0.625-3.404c0-1.265,0.209-2.401,0.625-3.404c0.417-1.006,0.975-1.854,1.675-2.546
		c0.699-0.693,1.511-1.22,2.433-1.585c0.923-0.366,1.891-0.547,2.903-0.547c1.012,0,1.979,0.181,2.902,0.547
		c0.923,0.365,1.733,0.892,2.434,1.585c0.699,0.692,1.257,1.54,1.674,2.546C653.481,105.325,653.69,106.461,653.69,107.727
		 M652.061,107.727c0-0.982-0.149-1.878-0.447-2.69c-0.297-0.811-0.711-1.508-1.237-2.088c-0.53-0.581-1.162-1.027-1.898-1.339
		c-0.738-0.312-1.545-0.469-2.423-0.469c-0.879,0-1.687,0.157-2.423,0.469s-1.369,0.758-1.897,1.339
		c-0.529,0.58-0.941,1.277-1.238,2.088c-0.299,0.812-0.447,1.708-0.447,2.69c0,0.983,0.148,1.879,0.447,2.69
		c0.297,0.811,0.709,1.506,1.238,2.089c0.528,0.58,1.161,1.026,1.897,1.338c0.736,0.313,1.544,0.47,2.423,0.47
		c0.878,0,1.685-0.157,2.423-0.47c0.736-0.312,1.368-0.758,1.898-1.338c0.526-0.583,0.94-1.278,1.237-2.089
		C651.911,109.605,652.061,108.709,652.061,107.727 M648.265,112.169c-0.342-0.67-0.726-1.307-1.149-1.908
		c-0.424-0.603-0.793-1.083-1.105-1.441h-1.496v3.349h-1.585v-8.662c0.401-0.09,0.827-0.157,1.272-0.201
		c0.446-0.046,0.855-0.067,1.228-0.067c1.281,0,2.256,0.238,2.926,0.714c0.669,0.476,1.004,1.198,1.004,2.166
		c0,0.551-0.145,1.03-0.435,1.44c-0.29,0.409-0.703,0.724-1.239,0.948c0.149,0.179,0.32,0.403,0.513,0.671
		c0.193,0.268,0.395,0.564,0.604,0.892c0.208,0.328,0.416,0.671,0.625,1.027c0.209,0.358,0.395,0.714,0.559,1.072H648.265z
		 M644.514,107.525h0.848c0.671,0,1.229-0.094,1.675-0.279c0.447-0.187,0.671-0.569,0.671-1.15c0-0.55-0.213-0.935-0.637-1.15
		s-0.934-0.323-1.529-0.323c-0.164,0-0.336,0.004-0.514,0.011c-0.179,0.007-0.35,0.019-0.514,0.033V107.525z"/>
	<path clip-path="url(#SVGID_2_)" fill="#F7F8F9" d="M10.922,196.008l0.374,0.097c3.368,0.863,7.169,1.573,11.294,2.101
		c4.079,0.522,8.254,0.963,12.408,1.31c3.976,0.336,8.079,0.598,12.546,0.797c4.233,0.17,8.149,0.257,11.633,0.257
		c28.236,0,49.168-4.653,62.214-13.831c13.113-9.222,19.763-23.152,19.763-41.41c0-12.479-3.14-22.289-9.329-29.156
		c-4.769-5.297-10.923-9.557-18.296-12.657l-4.678-1.971l4.378-2.643c4.855-2.934,8.974-6.717,12.239-11.248
		c4.645-6.434,7-14.778,7-24.798c0-8.955-1.919-16.629-5.701-22.802c-3.773-6.148-9.032-11.185-15.631-14.968
		c-6.579-3.764-14.451-6.467-23.393-8.034c-8.933-1.57-18.63-2.367-28.822-2.367c-3.48,0-7.356,0.087-11.517,0.257
		c-4.15,0.183-8.324,0.45-12.404,0.796c-4.195,0.344-8.367,0.787-12.406,1.31c-4.096,0.524-7.897,1.23-11.3,2.101l-0.372,0.096
		V196.008z M60.711,178.32c-3.917,0-7.358-0.04-10.339-0.131c-2.972-0.09-5.56-0.214-7.801-0.394
		c-1.405-0.096-2.724-0.19-3.94-0.286l-2.214-0.177v-62.909h31.446c7.068,0,13.571,0.527,19.329,1.567
		c5.729,1.037,10.707,2.78,14.8,5.181c4.063,2.38,7.222,5.613,9.387,9.617c2.164,4.01,3.26,8.991,3.26,14.801
		c0,6.484-1.471,11.931-4.375,16.192c-2.928,4.276-6.861,7.656-11.693,10.044c-4.87,2.41-10.625,4.113-17.105,5.063
		C74.945,177.84,67.962,178.32,60.711,178.32 M61.989,92.966H36.417V37.905l2.175-0.214c2.185-0.213,4.542-0.38,7.065-0.5
		c3.756-0.176,8.734-0.266,14.798-0.266c6.207,0,12.195,0.526,17.799,1.563c5.536,1.037,10.432,2.65,14.553,4.797
		c4.082,2.134,7.33,4.987,9.657,8.478c2.348,3.517,3.489,7.747,3.489,12.924c0,5.454-1.132,10.024-3.366,13.584
		c-2.254,3.587-5.374,6.524-9.278,8.734c-3.926,2.231-8.643,3.801-14.016,4.664C73.892,92.529,68.073,92.966,61.989,92.966"/>
	<path clip-path="url(#SVGID_2_)" fill="#F7F8F9" d="M449.936,105.344c-5.302,0-10.556,1.015-15.615,3.015
		c-5.104,2.015-9.68,5.083-13.601,9.122c-3.896,4.014-7.054,9.097-9.385,15.099c-2.32,5.97-3.498,13.005-3.498,20.91
		c0,6.736,0.903,13.039,2.686,18.733c1.824,5.826,4.67,10.939,8.461,15.197c3.811,4.291,8.706,7.692,14.55,10.109
		c5.779,2.395,12.672,3.61,20.487,3.61c6.091,0,11.655-0.58,16.537-1.727c4.957-1.168,8.4-2.279,10.524-3.404l2.164-1.143
		l-3.266-19.574l-4.054,1.916c-1.63,0.77-4.198,1.604-7.63,2.477c-3.367,0.85-7.619,1.282-12.644,1.282
		c-8.479,0-14.697-1.965-18.48-5.84c-3.251-3.332-5.374-8.149-6.314-14.332h57.364l0.361-2.986c0.118-0.99,0.187-2.077,0.187-3.265
		v-2.524c0-15.346-3.351-27.049-9.961-34.794C472.066,109.343,462.353,105.344,449.936,105.344 M431.407,141.768
		c0.317-1.384,0.724-2.756,1.216-4.103c0.896-2.448,2.148-4.625,3.727-6.478c1.562-1.834,3.491-3.345,5.735-4.491
		c2.174-1.108,4.76-1.669,7.688-1.669c5.168,0,9.085,1.747,11.974,5.341c2.433,3.037,3.87,6.868,4.28,11.399H431.407z"/>
	<path clip-path="url(#SVGID_2_)" fill="#F7F8F9" d="M555.019,177.698c-1.616,0.763-3.972,1.507-7.003,2.211
		c-2.988,0.704-6.409,1.059-10.17,1.059c-4.522,0-8.365-0.654-11.422-1.943c-2.954-1.245-5.4-3.03-7.271-5.31
		c-1.919-2.342-3.348-5.214-4.25-8.543c-0.95-3.485-1.431-7.415-1.431-11.682c0-9.371,2.01-16.491,5.975-21.166
		c3.876-4.581,9.413-6.809,16.931-6.809c3.113,0,6.085,0.307,8.832,0.904c2.725,0.594,5.142,1.392,7.185,2.363l3.686,1.757
		l5.248-19.742l-2.771-1.118c-3.701-1.504-7.619-2.616-11.644-3.308c-3.847-0.657-7.67-0.99-11.361-0.99
		c-7.132,0-13.495,1.211-18.913,3.6c-5.493,2.417-10.206,5.84-14.007,10.175c-3.762,4.288-6.7,9.418-8.736,15.242
		c-2.021,5.777-3.048,12.199-3.048,19.092c0,6.852,0.934,13.217,2.774,18.923c1.883,5.823,4.786,10.934,8.634,15.191
		c3.854,4.276,8.655,7.644,14.267,10.003c5.57,2.343,12.083,3.532,19.363,3.532c2.263,0,4.675-0.143,7.173-0.43
		c2.409-0.283,4.707-0.626,6.836-1.012c2.185-0.408,4.173-0.875,5.912-1.396c1.931-0.579,3.426-1.209,4.572-1.922l1.928-1.199
		l-3.233-19.398L555.019,177.698z"/>
	<path clip-path="url(#SVGID_2_)" fill="#F7F8F9" d="M641.229,131.499c-1.196-5.257-3.303-9.851-6.265-13.66
		c-3.018-3.874-7.069-6.917-12.046-9.038c-4.868-2.077-10.976-3.13-18.151-3.13c-3.332,0-6.755,0.321-10.174,0.957
		c-1.729,0.32-3.423,0.716-5.054,1.177V51.783l-21.971,3.784v143.611h21.971v-71.44l0.154-0.041c1.172-0.303,2.497-0.585,3.97-0.841
		c1.528-0.262,3.139-0.498,4.826-0.711c5.234-0.644,10.145-0.267,13.563,1.025c2.11,0.804,3.739,2.043,4.985,3.793
		c1.334,1.863,2.322,4.436,2.937,7.644c0.665,3.479,1.003,7.77,1.003,12.757v47.814h21.97v-51.082
		C642.948,142.113,642.371,136.529,641.229,131.499"/>
	<path clip-path="url(#SVGID_2_)" fill="#F7F8F9" d="M405.677,177.29c-1.072,0.43-2.979,1.152-5.713,2.174
		c-2.383,0.887-5.694,1.339-9.845,1.339c-2.238,0-4.183-0.271-5.785-0.807c-1.36-0.454-2.46-1.202-3.361-2.292
		c-0.966-1.168-1.723-2.902-2.25-5.154c-0.593-2.504-0.893-5.784-0.893-9.754v-52.923h31.164c5.576,0,10.114-4.538,10.114-10.116
		c0-5.581-4.538-10.118-10.114-10.118H377.83V51.687l-21.969,3.784v107.49c0,5.873,0.492,11.14,1.464,15.649
		c1.024,4.783,2.862,8.9,5.457,12.236c2.654,3.41,6.187,5.998,10.504,7.692c4.14,1.617,9.365,2.438,15.528,2.438
		c5.187,0,9.912-0.626,14.043-1.858c4.033-1.215,6.824-2.218,8.54-3.071l2.397-1.199l-4.452-19.028L405.677,177.29z"/>
	<path clip-path="url(#SVGID_2_)" fill="#1096B2" d="M342.335,89.197l-24.209-0.069c-0.18-4.865-0.407-9.514-0.62-13.862
		c-0.503-10.324-1.993-45.76-2.056-56.411c-0.029-4.774-3.251-9.035-7.837-10.362c-4.483-1.286-9.63,0.667-12.143,4.554
		l-51.951,80.887c-2.144,3.335-2.3,7.571-0.405,11.056c1.893,3.478,5.534,5.649,9.502,5.662l43.946,0.118v17.574
		c0,35.287-28.707,63.995-63.992,63.995c-35.286,0-63.993-28.708-63.993-63.995v-17.87h60.131l0.363-2.98
		c0.128-1.037,0.193-2.162,0.193-3.342v-2.594c0-15.725-3.429-27.709-10.192-35.62c-6.901-8.066-16.839-12.155-29.541-12.155
		c-5.444,0-10.823,1.037-15.983,3.083c-5.226,2.065-9.909,5.207-13.918,9.337c-3.99,4.108-7.221,9.309-9.602,15.454
		c-0.914,2.351-1.652,4.936-2.25,7.876h-7.68c-5.742,0-10.412,4.672-10.412,10.411c0,5.74,4.67,10.409,10.412,10.409h6.341v17.991
		c0,47.495,38.638,86.135,86.131,86.135s86.132-38.64,86.132-86.135v-17.512l23.602,0.069c5.964,0,10.832-4.856,10.852-10.823
		C353.169,94.099,348.314,89.218,342.335,89.197 M272.475,89.007l22.395-34.869c0.376,9.365,0.753,17.917,0.963,22.19l0.029,0.573
		c0.186,3.849,0.383,7.929,0.547,12.174L272.475,89.007z M170.846,89.533c0.263-0.993,0.54-1.881,0.849-2.722
		c0.917-2.51,2.209-4.759,3.838-6.677c1.595-1.878,3.583-3.429,5.908-4.616c2.244-1.146,4.908-1.725,7.922-1.725
		c5.328,0,9.366,1.803,12.345,5.512c2.185,2.722,3.583,6.157,4.167,10.228H170.846z"/>
</g>
</svg>
