<svg xmlns="http://www.w3.org/2000/svg" xmlns:xlink="http://www.w3.org/1999/xlink" width="345" height="533.263" viewBox="0 0 345 533.263">
  <defs>
    <clipPath id="clip-path">
      <rect id="Rect치ngulo_18" data-name="Rect치ngulo 18" width="69.373" height="46.249" transform="translate(0 0)" fill="#269db7"/>
    </clipPath>
    <clipPath id="clip-path-7">
      <rect id="Rect치ngulo_24" data-name="Rect치ngulo 24" width="308.467" height="286.566" fill="#269db7"/>
    </clipPath>
  </defs>
  <g id="logo-banner" transform="translate(77 -210.737)">
    <g id="logo" transform="translate(-58.889 210.737)">
      <g id="Grupo_8" data-name="Grupo 8" transform="translate(26.362)" clip-path="url(#clip-path)">
        <path id="Trazado_8" data-name="Trazado 8" d="M639.663,100.3a.717.717,0,0,1-.051.277.625.625,0,0,1-.136.208.589.589,0,0,1-.2.129.651.651,0,0,1-.473,0,.587.587,0,0,1-.2-.129.622.622,0,0,1-.137-.208.781.781,0,0,1,0-.555.622.622,0,0,1,.137-.208.582.582,0,0,1,.2-.129.65.65,0,0,1,.473,0,.586.586,0,0,1,.2.129.625.625,0,0,1,.136.208.717.717,0,0,1,.051.277m-.133,0a.632.632,0,0,0-.036-.219.514.514,0,0,0-.1-.17.439.439,0,0,0-.155-.109.529.529,0,0,0-.4,0,.437.437,0,0,0-.155.109.509.509,0,0,0-.1.17.677.677,0,0,0,0,.439.512.512,0,0,0,.1.17.438.438,0,0,0,.155.109.528.528,0,0,0,.4,0,.44.44,0,0,0,.155-.109.517.517,0,0,0,.1-.17.634.634,0,0,0,.036-.219m-.31.362a1.289,1.289,0,0,0-.094-.156,1.475,1.475,0,0,0-.09-.117h-.122v.273h-.129V99.96a.863.863,0,0,1,.1-.016.976.976,0,0,1,.1-.005.41.41,0,0,1,.239.058.2.2,0,0,1,.082.177.2.2,0,0,1-.035.117.228.228,0,0,1-.1.077q.018.022.042.055c.016.022.032.046.049.073s.034.055.051.084.032.058.046.087Zm-.306-.379h.069a.358.358,0,0,0,.136-.023.091.091,0,0,0,.055-.094.1.1,0,0,0-.052-.094.273.273,0,0,0-.125-.026h-.042l-.042,0Z" transform="translate(-577.896 -78.551)" fill="#269db7"/>
      </g>
      <g id="Grupo_14" data-name="Grupo 14" transform="translate(0 34.482)" clip-path="url(#clip-path-7)">
        <path id="Trazado_14" data-name="Trazado 14" d="M352.3,93l-25.344-.072c-.188-5.093-.426-9.96-.649-14.512-.527-10.808-2.087-47.9-2.153-59.055a11.43,11.43,0,0,0-8.2-10.848,11.69,11.69,0,0,0-12.712,4.767L248.855,97.957a11.357,11.357,0,0,0,9.523,17.5l46.006.124v18.4a66.992,66.992,0,1,1-133.984,0V115.273h62.95l.38-3.12a28.76,28.76,0,0,0,.2-3.5v-2.716c0-16.462-3.59-29.008-10.67-37.29-7.224-8.444-17.628-12.725-30.925-12.725A45.227,45.227,0,0,0,175.6,59.152a41.43,41.43,0,0,0-14.57,9.775A47.725,47.725,0,0,0,150.981,85.1a50.264,50.264,0,0,0-2.356,8.245h-8.04a10.9,10.9,0,1,0,0,21.8h6.638V133.98a90.169,90.169,0,1,0,180.337,0V115.647l24.709.072A11.361,11.361,0,0,0,352.3,93m-73.134-.2,23.445-36.5c.394,9.8.788,18.757,1.008,23.23l.03.6c.195,4.029.4,8.3.573,12.745Zm-106.393.551c.275-1.04.565-1.969.889-2.85a22.857,22.857,0,0,1,4.018-6.99,19.923,19.923,0,0,1,6.185-4.832,18.085,18.085,0,0,1,8.293-1.806c5.578,0,9.8,1.888,12.924,5.77a21.724,21.724,0,0,1,4.362,10.707Z" transform="translate(-84.381 26.641)" fill="#269db7"/>
      </g>
    </g>
    <text id="TECHNOLOGY_FOR_LIFE" data-name="TECHNOLOGY
FOR LIFE" transform="translate(-77 546)" fill="#f9f9f9" font-size="35" font-family="Montserrat-Medium, Montserrat" font-weight="500" letter-spacing="0.2em"><tspan x="13.583" y="34">TECHNOLOGY</tspan><tspan x="66.24" y="77">FOR LIFE</tspan></text>
  </g>
</svg>
